<svg id="Capa_1" data-name="Capa 1" xmlns="http://www.w3.org/2000/svg" viewBox="0 0 512 512"><defs><style>.cls-1{fill:#f5f5f5;}.cls-2{fill:#466d4e;}</style></defs><title>1iconai</title><circle class="cls-1" cx="256" cy="256" r="256"/><path class="cls-2" d="M349.94,404.48,244.43,60.29c-6.21-19.75-31.6-29.34-57.55-29.34s-51.35,9.59-57.55,29.34L31.89,379.82a256.6,256.6,0,0,0,53.16,66.74c11.54-1.07,20.44-5.83,23.39-16.12l19.18-70.53H246.68l19.18,70.53c3.39,11.85,14.67,16.36,28.78,16.36,24.26,0,56.42-15.23,56.42-36.11A29,29,0,0,0,349.94,404.48ZM145.68,292.19,186.87,141l41.19,151.22Z" transform="translate(0 0)"/><path class="cls-2" d="M422.15,45.62a51.74,51.74,0,0,0-16.5,2.65c-17.58,5.87-29.77,20.79-29.77,37.41,0,21.44,20.31,40.63,46.27,40.63,17.48,0,32.56-9.1,40.26-21.76a36.3,36.3,0,0,0,5.44-18.86C467.86,64.24,447.54,45.62,422.15,45.62Zm0,132.6c-25.39,0-43.45,10.72-43.45,26.52v215c0,13.54,18.06,27.08,43.45,27.08,1.6,0,3.18-.06,4.72-.18a256.78,256.78,0,0,0,39.29-44.41V204.74C466.16,188.94,446.42,178.22,422.15,178.22Z" transform="translate(0 0)"/></svg>