<svg id="Capa_1" data-name="Capa 1" xmlns="http://www.w3.org/2000/svg" viewBox="0 0 512 512"><defs><style>.cls-1{fill:#f5f5f5;}.cls-2{fill:#466d4e;}</style></defs><title>2iconps</title><circle class="cls-1" cx="256" cy="256" r="256"/><path class="cls-2" d="M161.68,30.95H44.78C25,30.95,12,43.37,12,57.5V333.75A255.94,255.94,0,0,0,78.41,440.38c12.49-4.12,21.71-12,21.71-23.72v-122H156c77.94,0,138.93-36.14,138.93-131v-2.82C295,66,236.22,30.95,161.68,30.95Zm45.17,139.49c0,38.4-19.19,56.47-50.82,56.47h-55.9V107.76H156c31.63,0,50.82,18.07,50.82,56.47Z" transform="translate(0 0)"/><path class="cls-2" d="M366.7,254.59c0-8.47,9.6-18.08,32.18-18.08,30.5,0,48,16.95,63.26,16.95,20.32,0,31.62-29.94,31.62-41.23,0-23.72-46.87-40.66-96-40.66-80.18,0-106.16,45.18-106.16,87,0,94.88,132.14,68.33,132.14,107.3,0,7.9-5.08,18.63-35,18.63-45.18,0-58.17-25.41-76.25-25.41-17.5,0-28.8,24.85-28.8,38.4,0,27.67,48,52,107.3,52a176.57,176.57,0,0,0,36.78-3.59,256.14,256.14,0,0,0,69.81-104.88C479.59,266.4,366.7,283.69,366.7,254.59Z" transform="translate(0 0)"/></svg>