<svg id="Capa_1" data-name="Capa 1" xmlns="http://www.w3.org/2000/svg" viewBox="0 0 94.5 92.07"><defs><style>.cls-1{fill:#f5f5f5;}.cls-2{fill:#466d4e;}</style></defs><title>3iconhtmlcss</title><circle class="cls-1" cx="47.25" cy="46.03" r="46.03"/><path class="cls-2" d="M93.92,45.83,69.8,21.71a2.06,2.06,0,0,0-2.83,0l-5.23,5.23a2,2,0,0,0,0,2.83L79.22,47.25,61.74,64.72a2,2,0,0,0,0,2.83L67,72.78a2,2,0,0,0,2.83,0L93.92,48.66A2,2,0,0,0,93.92,45.83Z" transform="translate(0 -1.23)"/><path class="cls-2" d="M32.76,64.72,15.28,47.25,32.76,29.77a2,2,0,0,0,0-2.83l-5.23-5.23a2,2,0,0,0-2.83,0L.58,45.83a2,2,0,0,0,0,2.83L24.7,72.78a2,2,0,0,0,2.83,0l5.23-5.23A2,2,0,0,0,32.76,64.72Z" transform="translate(0 -1.23)"/><path class="cls-2" d="M61,13.6a2,2,0,0,0-1.19-1l-4.24-1.25a2,2,0,0,0-2.48,1.35L33.38,79.38a2,2,0,0,0,1.35,2.48L39,83.12a2,2,0,0,0,2.48-1.35L61.13,15.12A2,2,0,0,0,61,13.6Z" transform="translate(0 -1.23)"/></svg>