<svg id="Ebene_1" data-name="Ebene 1" xmlns="http://www.w3.org/2000/svg" viewBox="0 0 392.42 277.09"><defs><style>.cls-1{fill:none;stroke:#476d4e;stroke-miterlimit:10;stroke-width:7px;}.cls-2{fill:#fff;}.cls-3{font-size:30px;font-family:DINCondensed-Bold, DIN Condensed;font-weight:700;}.cls-3,.cls-4{fill:#b2b1ae;}</style></defs><title>ai1</title><circle class="cls-1" cx="151.49" cy="158.09" r="115.5"/><rect class="cls-2" width="151.49" height="100.34"/><rect class="cls-2" x="26.42" y="88" width="74.59" height="184.34"/><rect class="cls-2" x="335.42" y="100.34" width="57" height="172"/><text class="cls-3" transform="translate(130.4 97.36)">53%</text><g id="_Gruppe_" data-name="&lt;Gruppe&gt;"><path id="_Zusammengesetzter_Pfad_" data-name="&lt;Zusammengesetzter Pfad&gt;" class="cls-4" d="M379.82,449.43h18.29a1.09,1.09,0,0,0,1-.8l5.33-19.23h20.71L431,448.66a1.09,1.09,0,0,0,1,.77h19a1.09,1.09,0,0,0,1.09-1.09,1.07,1.07,0,0,0-.1-.45L427.85,370a1.09,1.09,0,0,0-1-.77H403.66a1.09,1.09,0,0,0-1,.77l-23.85,78a1.09,1.09,0,0,0,1,1.4ZM422,414H407.64l4.24-15.17c.77-2.73,1.5-6,2.2-9.1l.48-2.11c.93,3.75,2,7.8,3,11.22Z" transform="translate(-277.58 -248)"/><path id="_Pfad_" data-name="&lt;Pfad&gt;" class="cls-4" d="M460.14,390.66a1.09,1.09,0,0,0-1.09,1.09v56.6a1.09,1.09,0,0,0,1.09,1.09h17.59a1.09,1.09,0,0,0,1.09-1.09v-56.6a1.09,1.09,0,0,0-1.09-1.09Z" transform="translate(-277.58 -248)"/><path id="_Pfad_2" data-name="&lt;Pfad&gt;" class="cls-4" d="M468.82,385.88c6.13,0,10.58-4.16,10.58-9.91s-4.44-10-10.46-10a10.59,10.59,0,0,0-7.69,3,9.63,9.63,0,0,0-2.66,7,9.46,9.46,0,0,0,2.66,6.89A10.43,10.43,0,0,0,468.82,385.88Z" transform="translate(-277.58 -248)"/></g></svg>