<svg id="Layer_1" data-name="Layer 1" xmlns="http://www.w3.org/2000/svg" viewBox="0 0 251.86 221.03"><defs><style>.cls-1{fill:#fff;}.cls-2{fill:none;stroke:#476e4f;stroke-miterlimit:10;stroke-width:7px;}.cls-3,.cls-4{fill:#b1afad;}.cls-4{font-size:26.89px;font-family:DINCondensed-Bold, DIN Condensed;font-weight:700;}</style></defs><title>ai1111</title><rect class="cls-1" x="0.32" y="44.23" width="47.98" height="154.12"/><rect class="cls-1" x="40.65" y="-22.45" width="44.31" height="103.14" transform="translate(81.01 -35.24) rotate(90)"/><ellipse class="cls-2" cx="106.53" cy="110.37" rx="103.03" ry="103.54"/><rect class="cls-1" x="0.32" y="6.84" width="61.19" height="205.94"/><g id="_Gruppe_" data-name="&lt;Gruppe&gt;"><path id="_Zusammengesetzter_Pfad_" data-name="&lt;Zusammengesetzter Pfad&gt;" class="cls-3" d="M73.51,150.78H89.83a1,1,0,0,0,.93-.71l4.76-17.24H114l5.16,17.26a1,1,0,0,0,.93.69H137a1,1,0,0,0,.88-1.38L116.36,79.58a1,1,0,0,0-.93-.69H94.79a1,1,0,0,0-.93.69L72.59,149.52a1,1,0,0,0,.15.86A1,1,0,0,0,73.51,150.78ZM111.15,119H98.34l3.79-13.6c.69-2.45,1.34-5.35,2-8.15l.43-1.89c.83,3.36,1.75,7,2.66,10.06Z" transform="translate(-10.91 -1.56)"/><path id="_Pfad_" data-name="&lt;Pfad&gt;" class="cls-3" d="M145.17,98.09a1,1,0,0,0-1,1V149.8a1,1,0,0,0,1,1h15.7a1,1,0,0,0,1-1V99.06a1,1,0,0,0-1-1Z" transform="translate(-10.91 -1.56)"/><path id="_Pfad_2" data-name="&lt;Pfad&gt;" class="cls-3" d="M152.91,93.81c5.47,0,9.44-3.73,9.44-8.88S158.39,76,153,76a9.42,9.42,0,0,0-6.86,2.68A8.65,8.65,0,0,0,143.79,85a8.51,8.51,0,0,0,2.37,6.17A9.28,9.28,0,0,0,152.91,93.81Z" transform="translate(-10.91 -1.56)"/></g><text class="cls-4" transform="translate(90.4 51.14)">53%</text><rect class="cls-1" x="51.89" width="54.64" height="22.68"/><rect class="cls-1" x="30.92" y="198.35" width="54.64" height="22.68"/></svg>