<svg id="Layer_1" data-name="Layer 1" xmlns="http://www.w3.org/2000/svg" viewBox="0 0 411.02 262.02"><defs><style>.cls-1{fill:none;stroke:#476e4f;stroke-miterlimit:10;stroke-width:7px;}.cls-2{fill:#fff;}.cls-3{font-size:28.35px;font-family:DINCondensed-Bold, DIN Condensed;font-weight:700;}.cls-3,.cls-4{fill:#b1afad;}</style></defs><title>ai11</title><circle class="cls-1" cx="143.14" cy="149.38" r="109.13"/><rect class="cls-2" width="143.14" height="94.81"/><rect class="cls-2" x="24.97" y="83.15" width="70.48" height="174.18"/><text class="cls-3" transform="translate(123.21 91.99)">53%</text><g id="_Gruppe_" data-name="&lt;Gruppe&gt;"><path id="_Zusammengesetzter_Pfad_" data-name="&lt;Zusammengesetzter Pfad&gt;" class="cls-4" d="M68.16,156.24H85.44a1,1,0,0,0,1-.75l5-18.17H111l5.47,18.19a1,1,0,0,0,1,.73h17.95a1,1,0,0,0,1-1,1,1,0,0,0-.09-.42l-22.82-73.6a1,1,0,0,0-1-.72H90.69a1,1,0,0,0-1,.73L67.18,154.92a1,1,0,0,0,1,1.33ZM108,122.8H94.45l4-14.33c.73-2.58,1.42-5.64,2.08-8.6l.45-2c.88,3.54,1.85,7.37,2.82,10.6Z" transform="translate(28.44 34.09)"/><path id="_Pfad_" data-name="&lt;Pfad&gt;" class="cls-4" d="M144.06,100.71a1,1,0,0,0-1,1v53.48a1,1,0,0,0,1,1h16.62a1,1,0,0,0,1-1V101.73a1,1,0,0,0-1-1Z" transform="translate(28.44 34.09)"/><path id="_Pfad_2" data-name="&lt;Pfad&gt;" class="cls-4" d="M152.26,96.2c5.79,0,10-3.93,10-9.36s-4.19-9.43-9.89-9.43a10,10,0,0,0-7.27,2.82,9.1,9.1,0,0,0-2.51,6.62,8.94,8.94,0,0,0,2.51,6.51A9.86,9.86,0,0,0,152.26,96.2Z" transform="translate(28.44 34.09)"/></g><rect class="cls-2" x="248.5" y="31.88" width="162.52" height="62.92"/></svg>