<svg id="Layer_1" data-name="Layer 1" xmlns="http://www.w3.org/2000/svg" viewBox="0 0 267.04 229.38"><defs><style>.cls-1{fill:#fff;}.cls-2{fill:none;stroke:#476e4f;stroke-miterlimit:10;stroke-width:7px;}.cls-3,.cls-4{fill:#b1afad;}.cls-4{font-size:28.4px;font-family:DINCondensed-Bold, DIN Condensed;font-weight:700;}</style></defs><title>ai111</title><rect class="cls-1" x="0.13" y="46.7" width="50.92" height="162.75"/><rect class="cls-1" x="35.78" y="-25.61" width="46.8" height="109.45" transform="translate(83.96 -30.07) rotate(90)"/><circle class="cls-2" cx="112.83" cy="116.55" r="109.33"/><rect class="cls-1" x="0.13" y="7.22" width="64.93" height="217.47"/><g id="_Gruppe_" data-name="&lt;Gruppe&gt;"><path id="_Zusammengesetzter_Pfad_" data-name="&lt;Zusammengesetzter Pfad&gt;" class="cls-3" d="M70.54,157.58H87.86a1,1,0,0,0,1-.75l5-18.2h19.6L119,156.84a1,1,0,0,0,1,.73h18a1,1,0,0,0,1-1,1,1,0,0,0-.09-.43L116,82.39a1,1,0,0,0-1-.72H93.11a1,1,0,0,0-1,.73L69.56,156.25a1,1,0,0,0,1,1.33Zm39.93-33.5H96.88l4-14.36c.73-2.59,1.42-5.65,2.09-8.61l.45-2c.88,3.55,1.85,7.38,2.83,10.62Z" transform="translate(-4.33)"/><path id="_Pfad_" data-name="&lt;Pfad&gt;" class="cls-3" d="M146.58,101.94a1,1,0,0,0-1,1v53.58a1,1,0,0,0,1,1h16.65a1,1,0,0,0,1-1V103a1,1,0,0,0-1-1Z" transform="translate(-4.33)"/><path id="_Pfad_2" data-name="&lt;Pfad&gt;" class="cls-3" d="M154.79,97.42c5.8,0,10-3.93,10-9.38s-4.2-9.44-9.9-9.44a10,10,0,0,0-7.28,2.83,9.11,9.11,0,0,0-2.51,6.64,9,9,0,0,0,2.52,6.52A9.87,9.87,0,0,0,154.79,97.42Z" transform="translate(-4.33)"/></g><text class="cls-4" transform="translate(95.71 54)">53%</text><rect class="cls-1" x="54.85" width="57.98" height="23.95"/></svg>