<svg id="Layer_1" data-name="Layer 1" xmlns="http://www.w3.org/2000/svg" viewBox="0 0 237.57 221.03"><defs><style>.cls-1{fill:#fff;}.cls-2{font-size:30px;font-family:DINCondensed-Bold, DIN Condensed;font-weight:700;}.cls-2,.cls-3{fill:#b1afad;}</style></defs><title>ai11111</title><rect class="cls-1" x="20.98" width="54.64" height="22.68"/><rect class="cls-1" y="198.35" width="54.64" height="22.68"/><text class="cls-2" transform="translate(56.57 63.3)">53%</text><g id="_Gruppe_" data-name="&lt;Gruppe&gt;"><path id="_Zusammengesetzter_Pfad_" data-name="&lt;Zusammengesetzter Pfad&gt;" class="cls-3" d="M70.24,162.93H88.53a1.09,1.09,0,0,0,1-.8l5.33-19.23h20.71l5.79,19.25a1.09,1.09,0,0,0,1,.77h19a1.09,1.09,0,0,0,1.09-1.09,1.07,1.07,0,0,0-.1-.45L118.27,83.51a1.09,1.09,0,0,0-1-.77H94.08a1.09,1.09,0,0,0-1,.77l-23.85,78a1.09,1.09,0,0,0,1,1.4Zm42.19-35.39H98.06l4.24-15.17c.77-2.73,1.5-6,2.2-9.1l.48-2.11c.93,3.75,2,7.8,3,11.22Z" transform="translate(-41.83 -1.56)"/><path id="_Pfad_" data-name="&lt;Pfad&gt;" class="cls-3" d="M150.56,104.16a1.09,1.09,0,0,0-1.09,1.09v56.6a1.09,1.09,0,0,0,1.09,1.09h17.59a1.09,1.09,0,0,0,1.09-1.09v-56.6a1.09,1.09,0,0,0-1.09-1.09Z" transform="translate(-41.83 -1.56)"/><path id="_Pfad_2" data-name="&lt;Pfad&gt;" class="cls-3" d="M159.24,99.38c6.13,0,10.58-4.16,10.58-9.91s-4.44-10-10.46-10a10.59,10.59,0,0,0-7.69,3,9.63,9.63,0,0,0-2.66,7,9.46,9.46,0,0,0,2.66,6.89A10.43,10.43,0,0,0,159.24,99.38Z" transform="translate(-41.83 -1.56)"/></g></svg>