<svg id="Layer_1" data-name="Layer 1" xmlns="http://www.w3.org/2000/svg" viewBox="0 0 231 231"><defs><style>.cls-1{fill:#f4f4f4;}.cls-2{fill:#fcc747;}.cls-3{fill:#d15241;}.cls-4{fill:#e46353;}.cls-5{fill:#db8643;}.cls-6{fill:#53b89c;}.cls-7{fill:#eaeff2;}.cls-8{fill:#fcd461;}.cls-9{fill:#f5c258;}.cls-10{fill:#556080;}.cls-11{fill:#7382be;}</style></defs><title>burger</title><circle class="cls-1" cx="115.5" cy="115.5" r="115.5"/><polygon class="cls-2" points="142.34 119.37 140.04 118.58 157.13 70.84 183 53.2 184.39 55.16 159.18 72.39 142.34 119.37"/><path class="cls-3" d="M350.55,269.67H327a5.6,5.6,0,0,1-5.37-5.09l-5.33-60.09c-.35-4.92,2.34-9.15,6.07-9.15h32.84c3.77,0,6.59,4.23,6.07,9.15l-5.37,60.05A5.41,5.41,0,0,1,350.55,269.67Z" transform="translate(-181.5 -105.08)"/><path class="cls-4" d="M339.64,269.67H326.95a5.6,5.6,0,0,1-5.37-5.09l-5.3-60.09c-.35-4.92,2.34-9.15,6.07-9.15h17.29Z" transform="translate(-181.5 -105.08)"/><path class="cls-5" d="M362,200.27H315.2A3.18,3.18,0,0,1,312,197.1v-6.88a3.18,3.18,0,0,1,3.21-3.16H362a3.18,3.18,0,0,1,3.21,3.16v6.88A3.13,3.13,0,0,1,362,200.27Z" transform="translate(-181.5 -105.08)"/><polygon class="cls-6" points="137.99 133.57 136.73 121.98 177.8 121.98 176.72 133.57 137.99 133.57"/><ellipse class="cls-7" cx="157.27" cy="127.8" rx="16.07" ry="15.86"/><rect class="cls-3" x="74.99" y="131.65" width="86.92" height="4.57"/><path class="cls-5" d="M347.17,253.82H253.8a3.36,3.36,0,0,1-3.38-3.34v-5.81a3.36,3.36,0,0,1,3.38-3.34h93.36a3.36,3.36,0,0,1,3.38,3.34v5.81A3.36,3.36,0,0,1,347.17,253.82Z" transform="translate(-181.5 -105.08)"/><path class="cls-8" d="M337.86,274.08H260.74a8.35,8.35,0,0,1-8.4-8.29v-7.05h93.71v7.05A8.15,8.15,0,0,1,337.86,274.08Z" transform="translate(-181.5 -105.08)"/><path class="cls-9" d="M299.3,258.74H252.37v3A12.32,12.32,0,0,0,264.86,274H299.3Z" transform="translate(-181.5 -105.08)"/><path class="cls-6" d="M334.65,258.74c0,1.58,2,3,4.29,3s4.29-1.41,4.29-3" transform="translate(-181.5 -105.08)"/><path class="cls-6" d="M325.9,258.74c0,1.58,2,3,4.29,3s4.29-1.41,4.29-3" transform="translate(-181.5 -105.08)"/><path class="cls-6" d="M317.33,258.74c0,1.58,2,3,4.29,3s4.29-1.41,4.29-3" transform="translate(-181.5 -105.08)"/><path class="cls-6" d="M308.61,258.74c0,1.58,2,3,4.29,3s4.29-1.41,4.29-3" transform="translate(-181.5 -105.08)"/><path class="cls-6" d="M300,258.74c0,1.58,2,3,4.29,3s4.29-1.41,4.29-3" transform="translate(-181.5 -105.08)"/><path class="cls-6" d="M291.28,258.74c0,1.58,2,3,4.29,3s4.29-1.41,4.29-3" transform="translate(-181.5 -105.08)"/><path class="cls-6" d="M282.53,258.74c0,1.58,2,3,4.29,3s4.29-1.41,4.29-3" transform="translate(-181.5 -105.08)"/><path class="cls-6" d="M274,258.74c0,1.58,2,3,4.29,3s4.29-1.41,4.29-3" transform="translate(-181.5 -105.08)"/><path class="cls-6" d="M265,258.74c0,1.58,2,3,4.29,3s4.29-1.41,4.29-3" transform="translate(-181.5 -105.08)"/><path class="cls-6" d="M256.49,258.74c0,1.58,2,3,4.29,3s4.29-1.41,4.29-3" transform="translate(-181.5 -105.08)"/><rect class="cls-6" x="74.99" y="148.74" width="86.92" height="5.3"/><path class="cls-8" d="M346.09,236.72c0-20.77-20.71-37.7-46.23-37.7s-46.23,16.92-46.23,37.7Z" transform="translate(-181.5 -105.08)"/><path class="cls-9" d="M299.86,236.72H253.63c0-20.95,20.71-37.87,46.23-37.87v37.87Z" transform="translate(-181.5 -105.08)"/><path class="cls-7" d="M222.39,208.56c0-14.27,11.61-25.9,27.12-25.9s28,11.63,28,25.9" transform="translate(-181.5 -105.08)"/><polygon class="cls-8" points="83.06 130.58 92.95 84.41 99.4 85.76 89.5 131.93 83.06 130.58"/><polygon class="cls-9" points="75.01 125.99 84.9 79.82 91.35 81.16 81.45 127.33 75.01 125.99"/><polygon class="cls-8" points="66.66 128.95 76.56 82.78 83.01 84.13 73.11 130.3 66.66 128.95"/><polygon class="cls-9" points="65.07 122.19 67.66 75.07 74.24 75.42 71.65 122.54 65.07 122.19"/><polygon class="cls-8" points="57.52 126.95 60.11 79.84 66.69 80.19 64.1 127.31 57.52 126.95"/><rect class="cls-9" x="233.46" y="183.37" width="6.59" height="47.19" transform="translate(-188.78 -96.44) rotate(-2.06)"/><rect class="cls-8" x="226.33" y="188.49" width="6.59" height="47.19" transform="translate(-188.97 -96.69) rotate(-2.06)"/><polygon class="cls-10" points="87.99 168.79 48.91 168.79 40.89 103.48 96.05 103.48 87.99 168.79"/><polygon class="cls-11" points="68.54 168.79 48.91 168.79 40.89 103.48 68.54 103.48 68.54 168.79"/></svg>