<svg id="Capa_1" data-name="Capa 1" xmlns="http://www.w3.org/2000/svg" viewBox="0 0 146.61 146.61"><defs><style>.cls-1{fill:#f4f4f4;}.cls-2{fill:#466d4e;}</style></defs><title>calendar</title><circle class="cls-1" cx="73.3" cy="73.3" r="73.3"/><path class="cls-2" d="M67-16.6H55.31v-5a1.67,1.67,0,0,0-1.68-1.68H41.9a1.67,1.67,0,0,0-1.68,1.68v5H3.36v-5A1.67,1.67,0,0,0,1.68-23.3H-10a1.67,1.67,0,0,0-1.68,1.68v5H-23.45a1.67,1.67,0,0,0-1.68,1.68V75.57a1.67,1.67,0,0,0,1.68,1.68H67a1.67,1.67,0,0,0,1.68-1.68V-14.92A1.67,1.67,0,0,0,67-16.6ZM43.58-19.95H52V-9.89H43.58V-19.95Zm-51.95,0H0V-9.89H-8.37V-19.95Zm-13.41,6.7h10.05v5A1.67,1.67,0,0,0-10-6.54H1.68A1.67,1.67,0,0,0,3.36-8.22v-5H40.23v5A1.67,1.67,0,0,0,41.9-6.54H53.63a1.67,1.67,0,0,0,1.68-1.68v-5H65.36V1.84H-21.78Zm0,87.14V5.19H65.36V73.9Z" transform="translate(51.51 44.11)"/><path class="cls-2" d="M35.2,15.24H-10v48.6H53.63V15.24H35.2ZM23.47,18.6H35.2V30.33H23.47ZM35.2,45.41H23.47V33.68H35.2ZM8.39,33.68H20.12V45.41H8.39Zm0-15.08H20.12V30.33H8.39Zm-15.08,0H5V30.33H-6.7Zm0,15.08H5V45.41H-6.7ZM5,60.49H-6.7V48.76H5Zm15.08,0H8.39V48.76H20.12Zm15.08,0H23.47V48.76H35.2Zm15.08,0H38.55V48.76H50.28Zm0-15.08H38.55V33.68H50.28Zm0-26.81V30.33H38.55V18.6Z" transform="translate(51.51 44.11)"/></svg>