<svg id="Layer_1" data-name="Layer 1" xmlns="http://www.w3.org/2000/svg" viewBox="0 0 231 231"><defs><style>.cls-1{fill:#f4f4f4;}.cls-2{fill:#556080;}.cls-3{fill:#424a60;stroke:#2c313d;stroke-linecap:round;stroke-miterlimit:10;stroke-width:2px;}.cls-4{fill:#7382be;}.cls-5{fill:#38454f;}.cls-6{fill:#edcd49;}.cls-7{fill:#8798cd;}.cls-8{fill:#4a6cb1;}.cls-9{fill:#bf4e8f;}.cls-10{fill:#bccbe9;}</style></defs><title>camera</title><circle class="cls-1" cx="115.5" cy="115.5" r="115.5"/><path class="cls-2" d="M293.13,192.37,284.19,170H230.58l-8.93,22.34H201.1a8.49,8.49,0,0,0-8.49,8.49v65.6a8.56,8.56,0,0,0,8.56,8.56H313.6a8.56,8.56,0,0,0,8.56-8.56v-65.6a8.49,8.49,0,0,0-8.49-8.49Z" transform="translate(-137.41 -104.79)"/><circle class="cls-3" cx="119.97" cy="123.32" r="37.97"/><circle class="cls-4" cx="119.97" cy="123.32" r="24.57"/><rect class="cls-5" x="68.6" y="76.41" width="8.93" height="11.17"/><circle class="cls-6" cx="169.11" cy="103.21" r="6.7"/><path class="cls-7" d="M264.09,228.11c0,8,3.17,15.14,8,19.62a24.5,24.5,0,0,0,0-39.25C267.26,213,264.09,220.08,264.09,228.11Z" transform="translate(-137.41 -104.79)"/><path class="cls-7" d="M232.82,228.11a24.51,24.51,0,0,0,9.83,19.62c4.87-4.48,8-11.59,8-19.62s-3.17-15.14-8-19.62A24.51,24.51,0,0,0,232.82,228.11Z" transform="translate(-137.41 -104.79)"/><path class="cls-2" d="M257.39,254.91a26.8,26.8,0,1,1,26.8-26.8A26.83,26.83,0,0,1,257.39,254.91Zm0-49.14a22.34,22.34,0,1,0,22.34,22.34A22.36,22.36,0,0,0,257.39,205.77Z" transform="translate(-137.41 -104.79)"/><circle class="cls-8" cx="123.32" cy="115.5" r="7.82"/><circle class="cls-9" cx="117.74" cy="118.85" r="4.47"/><circle class="cls-10" cx="111.04" cy="114.38" r="4.47"/></svg>