<svg id="Layer_1" data-name="Layer 1" xmlns="http://www.w3.org/2000/svg" viewBox="0 0 231 231"><defs><style>.cls-1{fill:#f4f4f4;}.cls-2{fill:#d15241;}.cls-3{fill:#e46353;}.cls-4{fill:#c6c5cc;}.cls-5{fill:#adacb2;}.cls-6{fill:#333;}.cls-7{fill:#1e1e1d;}</style></defs><title>cosmetics</title><circle class="cls-1" cx="115.5" cy="115.5" r="115.5"/><path class="cls-2" d="M203.85,172l-21.39-15.78a2,2,0,0,0-2.1-.19,2,2,0,0,0-1.11,1.76V199.9a2,2,0,0,0,2,2h21.39a2,2,0,0,0,2-2V173.6A2,2,0,0,0,203.85,172Z" transform="translate(-103.19 -117.26)"/><path class="cls-3" d="M203.85,172l-9.23-6.8v36.65h8a2,2,0,0,0,2-2V173.6A2,2,0,0,0,203.85,172Z" transform="translate(-103.19 -117.26)"/><path class="cls-4" d="M205.32,197.92H178.58a2,2,0,0,0-2,2v31.56a2,2,0,0,0,2,2h26.74a2,2,0,0,0,2-2V199.9A2,2,0,0,0,205.32,197.92Z" transform="translate(-103.19 -117.26)"/><path class="cls-5" d="M205.32,197.92h-8v35.5h8a2,2,0,0,0,2-2V199.9A2,2,0,0,0,205.32,197.92Z" transform="translate(-103.19 -117.26)"/><path class="cls-6" d="M208,229.48H175.91a2,2,0,0,0-2,2v42.08a2,2,0,0,0,2,2H208a2,2,0,0,0,2-2V231.45A2,2,0,0,0,208,229.48Z" transform="translate(-103.19 -117.26)"/><path class="cls-7" d="M208,229.48h-8v46h8a2,2,0,0,0,2-2V231.45A2,2,0,0,0,208,229.48Z" transform="translate(-103.19 -117.26)"/><path class="cls-6" d="M245.43,203.18a17.92,17.92,0,0,0-18,17.75v52.6a2,2,0,0,0,2,2h32.09a2,2,0,0,0,2-2v-52.6A17.92,17.92,0,0,0,245.43,203.18Z" transform="translate(-103.19 -117.26)"/><path class="cls-7" d="M245.43,203.18a18.18,18.18,0,0,0-8.26,2h.38a15.91,15.91,0,0,1,16,15.78V275.5h7.89a2,2,0,0,0,2-2v-52.6A17.92,17.92,0,0,0,245.43,203.18Z" transform="translate(-103.19 -117.26)"/></svg>