<svg id="Ebene_1" data-name="Ebene 1" xmlns="http://www.w3.org/2000/svg" viewBox="0 0 146.61 146.61"><defs><style>.cls-1{fill:#f5f4f5;}.cls-2{fill:#476d4e;}</style></defs><title>creative</title><circle class="cls-1" cx="73.3" cy="73.3" r="73.3"/><path class="cls-2" d="M283.63,289.67a37,37,0,0,0-13.05,71.58V381a2.17,2.17,0,0,0,2.18,2.18h2.18v4.35a2.17,2.17,0,0,0,2.18,2.18h13.05a2.17,2.17,0,0,0,2.18-2.18v-4.35h2.18a2.17,2.17,0,0,0,2.18-2.18v-19.8a37,37,0,0,0-13.05-71.58Zm6.53,89.2A2.17,2.17,0,0,0,288,381v4.35h-8.7V381a2.17,2.17,0,0,0-2.18-2.18h-2.18V368h17.4v10.88Zm3.67-21.23a2.18,2.18,0,0,0-1.5,2.07v3.93h-17.4v-3.93a2.17,2.17,0,0,0-1.5-2.07,32.63,32.63,0,1,1,20.4,0Z" transform="translate(-210.33 -255.31)"/><path class="cls-2" d="M283.63,285.32a2.17,2.17,0,0,0,2.18-2.18v-8.7a2.18,2.18,0,1,0-4.35,0v8.7A2.17,2.17,0,0,0,283.63,285.32Z" transform="translate(-210.33 -255.31)"/><path class="cls-2" d="M335.85,324.48h-8.7a2.18,2.18,0,0,0,0,4.35h8.7a2.18,2.18,0,1,0,0-4.35Z" transform="translate(-210.33 -255.31)"/><path class="cls-2" d="M240.12,324.48h-8.7a2.18,2.18,0,1,0,0,4.35h8.7a2.18,2.18,0,0,0,0-4.35Z" transform="translate(-210.33 -255.31)"/><path class="cls-2" d="M319,288.2l-6.15,6.15a2.18,2.18,0,1,0,3.08,3.08l6.15-6.15A2.18,2.18,0,1,0,319,288.2Z" transform="translate(-210.33 -255.31)"/><path class="cls-2" d="M251.33,355.89,245.17,362a2.18,2.18,0,1,0,3.08,3.08L254.4,359a2.18,2.18,0,1,0-3.08-3.08Z" transform="translate(-210.33 -255.31)"/><path class="cls-2" d="M315.94,355.89a2.18,2.18,0,0,0-3.08,3.08l6.15,6.15a2.18,2.18,0,0,0,3.08-3.08Z" transform="translate(-210.33 -255.31)"/><path class="cls-2" d="M251.33,297.42a2.18,2.18,0,0,0,3.08-3.08l-6.15-6.15a2.18,2.18,0,1,0-3.08,3.08Z" transform="translate(-210.33 -255.31)"/><path class="cls-2" d="M283.63,300.55a26.14,26.14,0,0,0-26.11,26.11,2.18,2.18,0,0,0,4.35,0,21.78,21.78,0,0,1,21.76-21.76,2.18,2.18,0,0,0,0-4.35Z" transform="translate(-210.33 -255.31)"/></svg>