<svg id="Ebene_1" data-name="Ebene 1" xmlns="http://www.w3.org/2000/svg" viewBox="0 0 146.61 146.61"><defs><style>.cls-1{fill:#f5f4f5;}.cls-2{fill:#486e4f;}</style></defs><title>firststeps</title><circle class="cls-1" cx="73.3" cy="73.3" r="73.3"/><path class="cls-2" d="M287,328.66v-6.05h8.19a4.46,4.46,0,0,0,4.45-4.45V276.44a4.46,4.46,0,0,0-4.45-4.45h-23a4.46,4.46,0,0,0-4.45,4.45v41.72a4.46,4.46,0,0,0,4.45,4.45h8.16v6.05a28.72,28.72,0,1,0,6.68,0Zm-12.62-50h18.58v4H274.34Zm0,10.7h18.58v4.35H274.34Zm0,11h18.58v4.35H274.34Zm0,15.53v-4.51h18.58v4.51Zm9.29,63.3a22,22,0,1,1,22-22A22.07,22.07,0,0,1,283.63,379.24Z" transform="translate(-210.33 -255.31)"/><path class="cls-2" d="M285.79,347.32a2.76,2.76,0,0,0-1.54-.45,1.73,1.73,0,0,0-.94.23l-4.27,2.59a1.85,1.85,0,0,0-.94,1.71,2.28,2.28,0,0,0,.45,1.39,1.36,1.36,0,0,0,1.13.61,1.44,1.44,0,0,0,.81-.26l.94-.58V369a1.25,1.25,0,0,0,.74,1.15,4.11,4.11,0,0,0,3.56,0,1.25,1.25,0,0,0,.74-1.15V348.45A1.33,1.33,0,0,0,285.79,347.32Z" transform="translate(-210.33 -255.31)"/></svg>