<svg id="Layer_1" data-name="Layer 1" xmlns="http://www.w3.org/2000/svg" viewBox="0 0 231 231"><defs><style>.cls-1{fill:#f4f4f4;}.cls-2{fill:#e1c3a0;}.cls-3{fill:#eff2fa;}.cls-4{fill:#c7cfe2;}.cls-5{fill:#afb9d2;}.cls-6{fill:#82889d;}.cls-7{opacity:0.97;}</style></defs><title>häckli</title><circle class="cls-1" cx="115.5" cy="115.5" r="115.5"/><path class="cls-2" d="M290.18,334.49H187.87a12,12,0,0,1-12-12V184a12,12,0,0,1,12-12H290.18a12,12,0,0,1,12,12V322.46A12,12,0,0,1,290.18,334.49Z" transform="translate(-123.53 -131.73)"/><path class="cls-3" d="M290.18,325.47H187.87a3,3,0,0,1-3-3V184a3,3,0,0,1,3-3H290.18a3,3,0,0,1,3,3V322.46A3,3,0,0,1,290.18,325.47Z" transform="translate(-123.53 -131.73)"/><path class="cls-4" d="M257.08,172h-9v-3A9,9,0,1,0,230,169v3h-9a6,6,0,0,0-6,6v6H263.1v-6A6,6,0,0,0,257.08,172Zm-18,0a3,3,0,1,1,3-3A3,3,0,0,1,239,172Z" transform="translate(-123.53 -131.73)"/><path class="cls-5" d="M263.1,187.05H215a3,3,0,0,1-3-3h0a3,3,0,0,1,3-3H263.1a3,3,0,0,1,3,3h0A3,3,0,0,1,263.1,187.05Z" transform="translate(-123.53 -131.73)"/><path class="cls-6" d="M208.94,229.18a3,3,0,0,1-2.13-.88l-9-9A3,3,0,1,1,202,215l6.9,6.9L221.85,209a3,3,0,1,1,4.26,4.25L211.06,228.3A3,3,0,0,1,208.94,229.18Z" transform="translate(-123.53 -131.73)"/><g class="cls-7"><path class="cls-5" d="M260.09,217.14H236a3,3,0,0,1-3-3h0a3,3,0,0,1,3-3h24.07a3,3,0,0,1,3,3h0A3,3,0,0,1,260.09,217.14Z" transform="translate(-123.53 -131.73)"/></g><g class="cls-7"><path class="cls-4" d="M275.13,229.18H236a3,3,0,0,1-3-3h0a3,3,0,0,1,3-3h39.11a3,3,0,0,1,3,3h0A3,3,0,0,1,275.13,229.18Z" transform="translate(-123.53 -131.73)"/></g><path class="cls-6" d="M208.94,301.39a3,3,0,0,1-2.13-.88l-9-9a3,3,0,0,1,4.26-4.26l6.9,6.9,12.91-12.92a3,3,0,0,1,4.26,4.26l-15.05,15A3,3,0,0,1,208.94,301.39Z" transform="translate(-123.53 -131.73)"/><g class="cls-7"><path class="cls-5" d="M260.09,289.36H236a3,3,0,0,1-3-3h0a3,3,0,0,1,3-3h24.07a3,3,0,0,1,3,3h0A3,3,0,0,1,260.09,289.36Z" transform="translate(-123.53 -131.73)"/></g><g class="cls-7"><path class="cls-4" d="M275.13,301.39H236a3,3,0,0,1-3-3h0a3,3,0,0,1,3-3h39.11a3,3,0,0,1,3,3h0A3,3,0,0,1,275.13,301.39Z" transform="translate(-123.53 -131.73)"/></g><path class="cls-6" d="M208.94,265.29a3,3,0,0,1-2.13-.89l-9-9a3,3,0,0,1,4.26-4.26l6.9,6.9,12.91-12.92a3,3,0,0,1,4.26,4.26l-15.05,15A3,3,0,0,1,208.94,265.29Z" transform="translate(-123.53 -131.73)"/><g class="cls-7"><path class="cls-5" d="M260.09,253.25H236a3,3,0,0,1-3-3h0a3,3,0,0,1,3-3h24.07a3,3,0,0,1,3,3h0A3,3,0,0,1,260.09,253.25Z" transform="translate(-123.53 -131.73)"/></g><g class="cls-7"><path class="cls-4" d="M275.13,265.29H236a3,3,0,0,1-3-3h0a3,3,0,0,1,3-3h39.11a3,3,0,0,1,3,3h0A3,3,0,0,1,275.13,265.29Z" transform="translate(-123.53 -131.73)"/></g></svg>