<svg id="Ebene_1" data-name="Ebene 1" xmlns="http://www.w3.org/2000/svg" viewBox="0 0 85 85.1"><defs><style>.cls-1{fill:#eee;}.cls-2{fill:#466d4e;}.cls-3{fill:#fff;}</style></defs><title>icon2</title><circle class="cls-1" cx="42.5" cy="42.6" r="42.5"/><path class="cls-2" d="M113.4,70.9a42.5,42.5,0,0,1-85,0H70.9V28.3A42.61,42.61,0,0,1,113.4,70.9Z" transform="translate(-28.4 -28.3)"/><circle class="cls-3" cx="42.5" cy="42.6" r="35.4"/><path class="cls-2" d="M70,67.1A6,6,0,0,1,68,72a8.8,8.8,0,0,1-5.7,1.7H60.5v7.1H56.3v-20h6.4c2.4,0,4.3.5,5.5,1.6A6,6,0,0,1,70,67.1Zm-9.6,3.2h1.4a4.56,4.56,0,0,0,2.9-.8,2.87,2.87,0,0,0,1-2.2,3,3,0,0,0-.8-2.2,3.56,3.56,0,0,0-2.5-.7H60.5v5.9Z" transform="translate(-28.4 -28.3)"/><path class="cls-2" d="M85.6,75.3a5.59,5.59,0,0,1-1.9,4.3,7.92,7.92,0,0,1-5.4,1.6A13.22,13.22,0,0,1,72.6,80V76A31.87,31.87,0,0,0,76,77.3a12.66,12.66,0,0,0,2.6.4,4.06,4.06,0,0,0,2.1-.5,1.86,1.86,0,0,0,.7-1.6,1.69,1.69,0,0,0-.3-1,3,3,0,0,0-1-.9c-.4-.3-1.3-.7-2.6-1.4a10.52,10.52,0,0,1-2.7-1.7,6.55,6.55,0,0,1-1.5-1.8,4.87,4.87,0,0,1-.5-2.5,5.17,5.17,0,0,1,1.8-4.2,7.65,7.65,0,0,1,5-1.5,10.32,10.32,0,0,1,3,.4c1,.3,1.9.6,3,1l-1.4,3.3c-1.1-.4-1.9-.7-2.6-.9a7.61,7.61,0,0,0-2.1-.3,2.44,2.44,0,0,0-1.8.6,2,2,0,0,0-.6,1.5,1.69,1.69,0,0,0,.3,1,3,3,0,0,0,.8.8,27.28,27.28,0,0,0,2.7,1.4,10.3,10.3,0,0,1,3.8,2.7A6.05,6.05,0,0,1,85.6,75.3Z" transform="translate(-28.4 -28.3)"/></svg>