<svg id="Ebene_1" data-name="Ebene 1" xmlns="http://www.w3.org/2000/svg" viewBox="0 0 85 85"><defs><style>.cls-1{fill:#eee;}.cls-2{fill:#466d4e;}.cls-3{fill:#fff;}</style></defs><title>IconAi</title><circle class="cls-1" cx="42.5" cy="42.5" r="42.5"/><path class="cls-2" d="M113.4,70.9a42.46,42.46,0,0,1-42.5,42.5v-85A42.46,42.46,0,0,1,113.4,70.9Z" transform="translate(-28.4 -28.4)"/><circle class="cls-3" cx="42.5" cy="42.5" r="35.4"/><path class="cls-2" d="M72.6,80.9l-1.4-4.8H63.9l-1.4,4.8H57.9L65,60.8h5.2l7.1,20.1Zm-2.5-8.3c-1.3-4.3-2.1-6.7-2.3-7.3s-.3-1-.4-1.3c-.3,1.2-1.2,4.1-2.6,8.7h5.3Z" transform="translate(-28.4 -28.4)"/><path class="cls-2" d="M79.7,80.9v-20h4.2v20Z" transform="translate(-28.4 -28.4)"/></svg>