<svg id="Ebene_1" data-name="Ebene 1" xmlns="http://www.w3.org/2000/svg" viewBox="0 0 85 85.1"><defs><style>.cls-1{fill:#eee;}.cls-2{fill:#466d4e;}.cls-3{fill:#fff;}</style></defs><title>icon3</title><circle class="cls-1" cx="42.5" cy="42.6" r="42.5"/><path class="cls-2" d="M113.4,70.9A42.53,42.53,0,0,1,46.9,106L93.1,59.8,70.9,37.6V28.3A42.61,42.61,0,0,1,113.4,70.9Z" transform="translate(-28.4 -28.3)"/><circle class="cls-3" cx="42.5" cy="42.6" r="35.4"/><path class="cls-2" d="M63.9,78.1l-13.6-6v-2l13.6-6.8v3.3L54.5,71l9.4,3.8Z" transform="translate(-28.4 -28.3)"/><path class="cls-2" d="M76.5,60.9,69,80.9H65.2l7.5-20Z" transform="translate(-28.4 -28.3)"/><path class="cls-2" d="M77.9,74.8,87.3,71l-9.4-4.3V63.4l13.6,6.8v2l-13.6,6Z" transform="translate(-28.4 -28.3)"/></svg>