<svg id="Capa_1" data-name="Capa 1" xmlns="http://www.w3.org/2000/svg" viewBox="0 0 31.06 31.06"><defs><style>.cls-1,.cls-2{fill:#466d4e;}.cls-2{stroke:#fff;stroke-linecap:round;stroke-linejoin:round;stroke-width:1.77px;}</style></defs><title>instagram</title><path class="cls-1" d="M23.13,31.06H7.93A7.94,7.94,0,0,1,0,23.13V7.93A7.94,7.94,0,0,1,7.93,0h15.2a7.94,7.94,0,0,1,7.93,7.93v15.2A7.94,7.94,0,0,1,23.13,31.06ZM7.93,1.77A6.16,6.16,0,0,0,1.78,7.93v15.2a6.16,6.16,0,0,0,6.16,6.16h15.2a6.16,6.16,0,0,0,6.16-6.16V7.93a6.16,6.16,0,0,0-6.16-6.16H7.93Z" transform="translate(0 0)"/><path class="cls-1" d="M30.17,11.65H19.23a.89.89,0,1,1,0-1.78H30.17a.89.89,0,0,1,0,1.78Z" transform="translate(0 0)"/><path class="cls-1" d="M11.6,11.65H.89a.89.89,0,0,1,0-1.78H11.6a.89.89,0,1,1,0,1.78Z" transform="translate(0 0)"/><path class="cls-1" d="M15.53,22.45a6.92,6.92,0,1,1,6.92-6.92A6.93,6.93,0,0,1,15.53,22.45Zm0-12.07a5.15,5.15,0,1,0,5.15,5.15A5.15,5.15,0,0,0,15.53,10.38Z" transform="translate(0 0)"/><path class="cls-1" d="M25.56,9.36h-4a.89.89,0,0,1-.89-.89v-4a.89.89,0,0,1,.89-.89h4a.89.89,0,0,1,.89.89v4A.89.89,0,0,1,25.56,9.36ZM22.45,7.59h2.22V5.37H22.45Z" transform="translate(0 0)"/><path class="cls-2" d="M19.23,10.77" transform="translate(0 0)"/></svg>