<svg id="Layer_1" data-name="Layer 1" xmlns="http://www.w3.org/2000/svg" viewBox="0 0 231 231"><defs><style>.cls-1{fill:#f4f4f4;}.cls-2{fill:#c8523b;}.cls-3{fill:#e5c400;}.cls-4,.cls-7{fill:#5b5b5f;isolation:isolate;}.cls-4{opacity:0.4;}.cls-5{fill:#59595a;}.cls-6{fill:#d8d9dd;}.cls-7{opacity:0.3;}.cls-8{fill:#abcb57;}.cls-9{fill:#5f95dd;}</style></defs><title>kreative1</title><circle class="cls-1" cx="115.5" cy="115.5" r="115.5"/><path class="cls-2" d="M303,308s4.9.53,5.85-2.1c1.15-3.19,1.78-9.94,1.78-20.09,0-23-3.64-69-3.64-69h-8s-3.64,46.05-3.64,69c0,10.15.63,16.9,1.78,20.09C298.06,308.54,303,308,303,308Z" transform="translate(-123.53 -131.73)"/><path class="cls-3" d="M306.94,216.8h-8s-.28,3.52-.68,9.11h9.33C307.22,220.32,306.94,216.8,306.94,216.8Z" transform="translate(-123.53 -131.73)"/><path class="cls-4" d="M303.93,186s17.74,18.33,2.84,30.8H299s-8.75-5.31-4.73-15.4C297.93,192.13,303.93,193.33,303.93,186Z" transform="translate(-123.53 -131.73)"/><path class="cls-5" d="M306.94,216.8h-8s-.06.72-.16,2h8.29C307,217.52,306.94,216.8,306.94,216.8Z" transform="translate(-123.53 -131.73)"/><path class="cls-6" d="M176.84,295.79a64.12,64.12,0,0,0,90.64-.2c12.54-12.54,24.06-41.6,10.23-55.42s-26,1.83-36.5-8.71,5-22.73-8.71-36.48-42.91-2.31-55.45,10.23A64,64,0,0,0,176.84,295.79Z" transform="translate(-123.53 -131.73)"/><path class="cls-7" d="M307.62,225.91c-.19-2.73-.36-5-.48-6.54v-.05l0-.37a.49.49,0,0,1,0-.12h0c-.1-1.31-.16-2-.16-2h-.17c14.9-12.47-2.84-30.8-2.84-30.8a8,8,0,0,1-1,4.16V308s4.9.53,5.85-2.1c1.15-3.19,1.78-9.94,1.78-20.09,0-16.62-1.91-45.31-3-59.91Z" transform="translate(-123.53 -131.73)"/><circle class="cls-3" cx="62.3" cy="102.84" r="9.21"/><circle class="cls-8" cx="89.27" cy="83.65" r="9.21"/><circle class="cls-3" cx="133.58" cy="123.17" r="9.21"/><circle class="cls-8" cx="117.56" cy="152.11" r="9.21"/><circle class="cls-9" cx="84.98" cy="157.73" r="9.21"/><circle class="cls-2" cx="60.39" cy="135.8" r="9.21"/><path class="cls-7" d="M212.79,206.18v18.41a9.21,9.21,0,1,0,0-18.41Z" transform="translate(-123.53 -131.73)"/><path class="cls-3" d="M176.62,234.57a9.21,9.21,0,0,0,9.2,9.21V225.36A9.2,9.2,0,0,0,176.62,234.57Z" transform="translate(-123.53 -131.73)"/><path class="cls-7" d="M185.82,225.36v18.42a9.21,9.21,0,1,0,0-18.42Z" transform="translate(-123.53 -131.73)"/><path class="cls-7" d="M257.11,245.69v18.42a9.21,9.21,0,0,0,0-18.42Z" transform="translate(-123.53 -131.73)"/><path class="cls-7" d="M241.08,274.63V293a9.21,9.21,0,1,0,0-18.41Z" transform="translate(-123.53 -131.73)"/><path class="cls-7" d="M217.72,289.46a9.2,9.2,0,0,0-9.15-9.2v18.41A9.21,9.21,0,0,0,217.72,289.46Z" transform="translate(-123.53 -131.73)"/><path class="cls-7" d="M183.92,258.33v18.41a9.21,9.21,0,0,0,0-18.41Z" transform="translate(-123.53 -131.73)"/></svg>