<svg id="Layer_1" data-name="Layer 1" xmlns="http://www.w3.org/2000/svg" viewBox="0 0 231 231"><defs><style>.cls-1{fill:#f4f4f4;}.cls-2{fill:#5b5b5f;}.cls-3{fill:#fff;}.cls-4{fill:#bec8dc;}.cls-5{fill:#afbbd0;}.cls-6{fill:#96a5b9;}.cls-7{fill:#e4eaf6;}.cls-8{fill:#fc4755;}.cls-9{fill:#464655;}</style></defs><title>pc1</title><circle class="cls-1" cx="115.5" cy="115.5" r="115.5"/><path class="cls-2" d="M312,189.55H166.06a5.41,5.41,0,0,0-5.4,5.41v86.47H317.39V195A5.41,5.41,0,0,0,312,189.55Zm-2.7,83.78H168.77V197.66H309.29Z" transform="translate(-123.53 -131.73)"/><path class="cls-3" d="M222.81,231.44a1.34,1.34,0,0,1,1.35,1.35h4.06v-4h-5.41a1.35,1.35,0,1,1,0-2.7h5.41V208.47H203.9v24.32h17.56A1.35,1.35,0,0,1,222.81,231.44Z" transform="translate(-123.53 -131.73)"/><path class="cls-3" d="M168.77,273.33H309.29V197.66H168.77Zm59.45-6.76h-5.41a1.35,1.35,0,0,1,0-2.7h5.41a1.35,1.35,0,0,1,0,2.7Zm-5.41-13.51a1.34,1.34,0,0,1,1.35,1.35v5.4a1.35,1.35,0,1,1-2.7,0v-5.4A1.35,1.35,0,0,1,222.81,253.06ZM221.46,249V243.6a1.35,1.35,0,0,1,2.7,0V249a1.35,1.35,0,0,1-2.7,0ZM239,266.57h-5.41a1.35,1.35,0,0,1,0-2.7H239a1.35,1.35,0,0,1,0,2.7Zm23-6.76a1.36,1.36,0,1,1-2.71,0v-5.4a1.36,1.36,0,0,1,2.71,0Zm0-10.8a1.36,1.36,0,0,1-2.71,0V243.6a1.36,1.36,0,0,1,2.71,0Zm0-10.81a1.36,1.36,0,0,1-2.71,0v-5.41a1.36,1.36,0,0,1,2.71,0Zm12.16,2.7V205.77a2.7,2.7,0,0,1,2.7-2.7h24.32a2.7,2.7,0,0,1,2.7,2.7v59.45a2.7,2.7,0,0,1-2.7,2.7H276.86a2.7,2.7,0,0,1-2.7-2.7ZM255.24,226h5.4a1.35,1.35,0,1,1,0,2.7h-5.4a1.35,1.35,0,1,1,0-2.7Zm0,37.83h5.4a1.35,1.35,0,1,1,0,2.7h-5.4a1.35,1.35,0,0,1,0-2.7ZM244.43,226h5.41a1.35,1.35,0,0,1,0,2.7h-5.41a1.35,1.35,0,1,1,0-2.7Zm0,37.83h5.41a1.35,1.35,0,0,1,0,2.7h-5.41a1.35,1.35,0,0,1,0-2.7Zm-45.94-58.1a2.7,2.7,0,0,1,2.7-2.7h29.73a2.7,2.7,0,0,1,2.7,2.7V226H239a1.35,1.35,0,0,1,0,2.7h-5.41v6.75a2.84,2.84,0,0,1-.13.84l7.09,6.36a1.08,1.08,0,0,1-.29,1.8l-2.69,1.18,2.4,5.46a1.35,1.35,0,0,1-.69,1.78,1.32,1.32,0,0,1-.54.12,1.35,1.35,0,0,1-1.24-.81l-2.4-5.47-2.69,1.18a1.08,1.08,0,0,1-1.52-1l.11-8.74h-6.87a1.35,1.35,0,0,1-2.7,0H201.19a2.7,2.7,0,0,1-2.7-2.71V205.77Zm-24.32,0a2.7,2.7,0,0,1,2.7-2.7H185a2.7,2.7,0,0,1,2.7,2.7v59.45a2.7,2.7,0,0,1-2.7,2.7h-8.11a2.7,2.7,0,0,1-2.7-2.7Z" transform="translate(-123.53 -131.73)"/><path class="cls-4" d="M160.66,292.24a5.41,5.41,0,0,0,5.4,5.41H312a5.41,5.41,0,0,0,5.4-5.41V281.43H160.66ZM239,285.49a4.05,4.05,0,1,1-4.06,4.05A4.05,4.05,0,0,1,239,285.49Z" transform="translate(-123.53 -131.73)"/><polygon class="cls-5" points="91.52 184.83 139.48 184.83 137.79 171.32 93.21 171.32 91.52 184.83"/><path class="cls-4" d="M214.71,316.56a2.71,2.71,0,1,0,0,5.41h48.64a2.71,2.71,0,0,0,0-5.41H214.71Z" transform="translate(-123.53 -131.73)"/><polygon class="cls-6" points="93.21 171.32 137.79 171.32 137.12 165.92 93.88 165.92 93.21 171.32"/><circle class="cls-6" cx="115.5" cy="157.81" r="4.05"/><path class="cls-4" d="M176.87,267.92H185a2.7,2.7,0,0,0,2.7-2.7V205.77a2.7,2.7,0,0,0-2.7-2.7h-8.11a2.7,2.7,0,0,0-2.7,2.7v59.45A2.7,2.7,0,0,0,176.87,267.92Zm2.7-59.45h2.71a2.71,2.71,0,0,1,0,5.41h-2.71a2.71,2.71,0,0,1,0-5.41Zm0,8.11h2.71a2.7,2.7,0,0,1,0,5.4h-2.71a2.7,2.7,0,0,1,0-5.4Zm0,8.1h2.71a2.71,2.71,0,0,1,0,5.41h-2.71a2.71,2.71,0,0,1,0-5.41Zm0,8.11h2.71a2.71,2.71,0,0,1,0,5.41h-2.71a2.71,2.71,0,0,1,0-5.41Zm0,8.11h2.71a2.7,2.7,0,0,1,0,5.4h-2.71a2.7,2.7,0,1,1,0-5.4Zm-2.7,13.51a2.7,2.7,0,0,1,2.71-2.7h2.7a2.7,2.7,0,0,1,2.7,2.7v5.4a2.7,2.7,0,0,1-2.7,2.71h-2.7a2.71,2.71,0,0,1-2.71-2.71Z" transform="translate(-123.53 -131.73)"/><path class="cls-7" d="M179.57,213.88h2.71a2.71,2.71,0,0,0,0-5.41h-2.71a2.71,2.71,0,0,0,0,5.41Z" transform="translate(-123.53 -131.73)"/><path class="cls-6" d="M179.57,222h2.71a2.7,2.7,0,0,0,0-5.4h-2.71a2.7,2.7,0,0,0,0,5.4Z" transform="translate(-123.53 -131.73)"/><path class="cls-7" d="M179.57,230.09h2.71a2.71,2.71,0,0,0,0-5.41h-2.71a2.71,2.71,0,0,0,0,5.41Z" transform="translate(-123.53 -131.73)"/><path class="cls-7" d="M179.57,238.2h2.71a2.71,2.71,0,0,0,0-5.41h-2.71a2.71,2.71,0,0,0,0,5.41Z" transform="translate(-123.53 -131.73)"/><path class="cls-7" d="M179.57,246.3h2.71a2.7,2.7,0,0,0,0-5.4h-2.71a2.7,2.7,0,1,0,0,5.4Z" transform="translate(-123.53 -131.73)"/><path class="cls-6" d="M179.57,262.52h2.71a2.7,2.7,0,0,0,2.7-2.71v-5.4a2.7,2.7,0,0,0-2.7-2.7h-2.71a2.7,2.7,0,0,0-2.7,2.7v5.4A2.7,2.7,0,0,0,179.57,262.52Z" transform="translate(-123.53 -131.73)"/><path class="cls-4" d="M303.88,205.77a2.7,2.7,0,0,0-2.7-2.7H276.86a2.7,2.7,0,0,0-2.7,2.7V222h29.72V205.77Zm-4.05,13.51H278.21a1.35,1.35,0,1,1,0-2.7h21.62a1.35,1.35,0,1,1,0,2.7Zm0-5.4H278.21a1.36,1.36,0,0,1,0-2.71h21.62a1.36,1.36,0,0,1,0,2.71Zm0-5.41H278.21a1.35,1.35,0,1,1,0-2.7h21.62a1.35,1.35,0,1,1,0,2.7Z" transform="translate(-123.53 -131.73)"/><path class="cls-4" d="M276.86,267.92h24.32a2.7,2.7,0,0,0,2.7-2.7V240.9H274.16v24.32A2.7,2.7,0,0,0,276.86,267.92ZM289,243.6h10.81a1.35,1.35,0,1,1,0,2.7H289a1.35,1.35,0,1,1,0-2.7Zm0,5.41h10.81a1.35,1.35,0,1,1,0,2.7H289a1.35,1.35,0,1,1,0-2.7Zm0,5.4h10.81a1.35,1.35,0,1,1,0,2.7H289a1.35,1.35,0,1,1,0-2.7Zm0,5.4h10.81a1.36,1.36,0,0,1,0,2.71H289a1.36,1.36,0,0,1,0-2.71Zm-5.41-16.21h0a1.35,1.35,0,1,1,0,2.7h0a1.35,1.35,0,1,1,0-2.7Zm0,5.41h0a1.35,1.35,0,1,1,0,2.7h0a1.35,1.35,0,0,1,0-2.7Zm0,5.4h0a1.35,1.35,0,1,1,0,2.7h0a1.35,1.35,0,1,1,0-2.7Zm0,5.4h0a1.36,1.36,0,1,1,0,2.71h0a1.36,1.36,0,0,1,0-2.71Zm-5.4-16.21h0a1.35,1.35,0,1,1,0,2.7h0a1.35,1.35,0,1,1,0-2.7Zm0,5.41h0a1.35,1.35,0,0,1,0,2.7h0a1.35,1.35,0,1,1,0-2.7Zm0,5.4h0a1.35,1.35,0,1,1,0,2.7h0a1.35,1.35,0,1,1,0-2.7Zm0,5.4h0a1.36,1.36,0,0,1,0,2.71h0a1.36,1.36,0,0,1,0-2.71Z" transform="translate(-123.53 -131.73)"/><path class="cls-6" d="M303.88,222H274.16V240.9h29.72Zm-23,16.22h-2.7a1.36,1.36,0,0,1,0-2.71h2.7a1.36,1.36,0,0,1,0,2.71Zm0-5.41h-2.7a1.35,1.35,0,1,1,0-2.7h2.7a1.35,1.35,0,0,1,0,2.7Zm0-5.4h-2.7a1.36,1.36,0,0,1,0-2.71h2.7a1.36,1.36,0,0,1,0,2.71Zm18.92,10.81H286.32a1.36,1.36,0,0,1,0-2.71h13.51a1.36,1.36,0,0,1,0,2.71Zm0-5.41H286.32a1.35,1.35,0,1,1,0-2.7h13.51a1.35,1.35,0,1,1,0,2.7Zm0-5.4H286.32a1.36,1.36,0,0,1,0-2.71h13.51a1.36,1.36,0,0,1,0,2.71Z" transform="translate(-123.53 -131.73)"/><path class="cls-6" d="M299.83,205.77H283.61a1.35,1.35,0,1,1,0,2.7h16.22a1.35,1.35,0,1,0,0-2.7Z" transform="translate(-123.53 -131.73)"/><path class="cls-6" d="M279.56,207.12a1.35,1.35,0,0,1,1.35-1.35h-2.7a1.35,1.35,0,1,0,0,2.7h2.7A1.35,1.35,0,0,1,279.56,207.12Z" transform="translate(-123.53 -131.73)"/><path class="cls-6" d="M299.83,216.58H289a1.35,1.35,0,1,1,0,2.7h10.81a1.35,1.35,0,1,0,0-2.7Z" transform="translate(-123.53 -131.73)"/><path class="cls-6" d="M285,217.93a1.34,1.34,0,0,1,1.35-1.35h-8.11a1.35,1.35,0,1,0,0,2.7h8.11A1.35,1.35,0,0,1,285,217.93Z" transform="translate(-123.53 -131.73)"/><path class="cls-4" d="M299.83,224.68H286.32a1.36,1.36,0,0,0,0,2.71h13.51a1.36,1.36,0,0,0,0-2.71Z" transform="translate(-123.53 -131.73)"/><path class="cls-6" d="M293.07,212.52a1.36,1.36,0,0,1,1.35-1.35H278.21a1.36,1.36,0,0,0,0,2.71h16.21A1.36,1.36,0,0,1,293.07,212.52Z" transform="translate(-123.53 -131.73)"/><path class="cls-6" d="M299.83,211.17h-2.7a1.36,1.36,0,0,1,0,2.71h2.7a1.36,1.36,0,0,0,0-2.71Z" transform="translate(-123.53 -131.73)"/><path class="cls-7" d="M285,207.12a1.35,1.35,0,0,0-1.36-1.35h-2.7a1.35,1.35,0,0,0,0,2.7h2.7A1.35,1.35,0,0,0,285,207.12Z" transform="translate(-123.53 -131.73)"/><path class="cls-7" d="M290.37,217.93a1.34,1.34,0,0,0-1.35-1.35h-2.7a1.35,1.35,0,1,0,0,2.7H289A1.35,1.35,0,0,0,290.37,217.93Z" transform="translate(-123.53 -131.73)"/><path class="cls-7" d="M280.91,224.68h-2.7a1.36,1.36,0,0,0,0,2.71h2.7a1.36,1.36,0,0,0,0-2.71Z" transform="translate(-123.53 -131.73)"/><path class="cls-4" d="M299.83,230.09H286.32a1.35,1.35,0,1,0,0,2.7h13.51a1.35,1.35,0,1,0,0-2.7Z" transform="translate(-123.53 -131.73)"/><path class="cls-7" d="M280.91,230.09h-2.7a1.35,1.35,0,1,0,0,2.7h2.7a1.35,1.35,0,0,0,0-2.7Z" transform="translate(-123.53 -131.73)"/><path class="cls-4" d="M299.83,235.49H286.32a1.36,1.36,0,0,0,0,2.71h13.51a1.36,1.36,0,0,0,0-2.71Z" transform="translate(-123.53 -131.73)"/><path class="cls-7" d="M280.91,235.49h-2.7a1.36,1.36,0,0,0,0,2.71h2.7a1.36,1.36,0,0,0,0-2.71Z" transform="translate(-123.53 -131.73)"/><path class="cls-7" d="M278.21,251.71h0a1.35,1.35,0,0,0,0-2.7h0a1.35,1.35,0,1,0,0,2.7Z" transform="translate(-123.53 -131.73)"/><path class="cls-7" d="M278.21,246.3h0a1.35,1.35,0,1,0,0-2.7h0a1.35,1.35,0,1,0,0,2.7Z" transform="translate(-123.53 -131.73)"/><path class="cls-7" d="M278.21,262.52h0a1.36,1.36,0,0,0,0-2.71h0a1.36,1.36,0,0,0,0,2.71Z" transform="translate(-123.53 -131.73)"/><path class="cls-7" d="M278.21,257.11h0a1.35,1.35,0,1,0,0-2.7h0a1.35,1.35,0,1,0,0,2.7Z" transform="translate(-123.53 -131.73)"/><path class="cls-6" d="M283.61,251.71h0a1.35,1.35,0,1,0,0-2.7h0a1.35,1.35,0,0,0,0,2.7Z" transform="translate(-123.53 -131.73)"/><path class="cls-6" d="M283.61,246.3h0a1.35,1.35,0,1,0,0-2.7h0a1.35,1.35,0,1,0,0,2.7Z" transform="translate(-123.53 -131.73)"/><path class="cls-6" d="M283.61,262.52h0a1.36,1.36,0,1,0,0-2.71h0a1.36,1.36,0,0,0,0,2.71Z" transform="translate(-123.53 -131.73)"/><path class="cls-6" d="M283.61,257.11h0a1.35,1.35,0,1,0,0-2.7h0a1.35,1.35,0,1,0,0,2.7Z" transform="translate(-123.53 -131.73)"/><path class="cls-6" d="M289,251.71h10.81a1.35,1.35,0,1,0,0-2.7H289a1.35,1.35,0,1,0,0,2.7Z" transform="translate(-123.53 -131.73)"/><path class="cls-6" d="M289,246.3h10.81a1.35,1.35,0,1,0,0-2.7H289a1.35,1.35,0,1,0,0,2.7Z" transform="translate(-123.53 -131.73)"/><path class="cls-6" d="M289,262.52h10.81a1.36,1.36,0,0,0,0-2.71H289a1.36,1.36,0,0,0,0,2.71Z" transform="translate(-123.53 -131.73)"/><path class="cls-6" d="M289,257.11h10.81a1.35,1.35,0,1,0,0-2.7H289a1.35,1.35,0,1,0,0,2.7Z" transform="translate(-123.53 -131.73)"/><path class="cls-8" d="M201.19,238.2h20.27v-5.41H203.9V208.47h24.32V226a1.35,1.35,0,0,1,0,2.7v4h-4.06v5.41H231l0-1.62a1.09,1.09,0,0,1,1.81-.8l.63.56a2.84,2.84,0,0,0,.13-.84v-6.75a1.35,1.35,0,1,1,0-2.7V205.77a2.7,2.7,0,0,0-2.7-2.7H201.19a2.7,2.7,0,0,0-2.7,2.7v29.72A2.7,2.7,0,0,0,201.19,238.2Z" transform="translate(-123.53 -131.73)"/><path class="cls-6" d="M222.81,250.36a1.35,1.35,0,0,0,1.35-1.35V243.6a1.35,1.35,0,0,0-2.7,0V249A1.36,1.36,0,0,0,222.81,250.36Z" transform="translate(-123.53 -131.73)"/><path class="cls-6" d="M255.24,266.57h5.4a1.35,1.35,0,1,0,0-2.7h-5.4a1.35,1.35,0,0,0,0,2.7Z" transform="translate(-123.53 -131.73)"/><path class="cls-6" d="M260.64,253.06a1.35,1.35,0,0,0-1.35,1.35v5.4a1.36,1.36,0,1,0,2.71,0v-5.4A1.35,1.35,0,0,0,260.64,253.06Z" transform="translate(-123.53 -131.73)"/><path class="cls-6" d="M255.24,228.74h5.4a1.35,1.35,0,1,0,0-2.7h-5.4a1.35,1.35,0,1,0,0,2.7Z" transform="translate(-123.53 -131.73)"/><path class="cls-6" d="M260.64,231.44a1.35,1.35,0,0,0-1.35,1.35v5.41a1.36,1.36,0,0,0,2.71,0v-5.41A1.35,1.35,0,0,0,260.64,231.44Z" transform="translate(-123.53 -131.73)"/><path class="cls-6" d="M239,263.87h-5.41a1.35,1.35,0,0,0,0,2.7H239a1.35,1.35,0,0,0,0-2.7Z" transform="translate(-123.53 -131.73)"/><path class="cls-6" d="M222.81,231.44a1.34,1.34,0,0,0-1.35,1.35v5.41a1.35,1.35,0,0,0,2.7,0v-5.41A1.34,1.34,0,0,0,222.81,231.44Z" transform="translate(-123.53 -131.73)"/><path class="cls-6" d="M228.22,263.87h-5.41a1.35,1.35,0,0,0,0,2.7h5.41a1.35,1.35,0,0,0,0-2.7Z" transform="translate(-123.53 -131.73)"/><path class="cls-6" d="M221.46,259.81a1.35,1.35,0,1,0,2.7,0v-5.4a1.35,1.35,0,0,0-2.7,0Z" transform="translate(-123.53 -131.73)"/><path class="cls-6" d="M260.64,242.25a1.35,1.35,0,0,0-1.35,1.35V249a1.36,1.36,0,0,0,2.71,0V243.6A1.35,1.35,0,0,0,260.64,242.25Z" transform="translate(-123.53 -131.73)"/><path class="cls-6" d="M244.43,228.74h5.41a1.35,1.35,0,0,0,0-2.7h-5.41a1.35,1.35,0,1,0,0,2.7Z" transform="translate(-123.53 -131.73)"/><path class="cls-6" d="M221.46,227.39a1.36,1.36,0,0,0,1.35,1.35h5.41a1.35,1.35,0,0,0,0-2.7h-5.41A1.35,1.35,0,0,0,221.46,227.39Z" transform="translate(-123.53 -131.73)"/><path class="cls-6" d="M244.43,266.57h5.41a1.35,1.35,0,0,0,0-2.7h-5.41a1.35,1.35,0,0,0,0,2.7Z" transform="translate(-123.53 -131.73)"/><path class="cls-6" d="M232.27,227.39a1.35,1.35,0,0,0,1.35,1.35H239a1.35,1.35,0,0,0,0-2.7h-5.41A1.34,1.34,0,0,0,232.27,227.39Z" transform="translate(-123.53 -131.73)"/><path class="cls-9" d="M231.05,236.57l0,1.62-.11,8.74a1.08,1.08,0,0,0,1.52,1l2.69-1.18,2.4,5.47a1.35,1.35,0,0,0,1.24.81,1.32,1.32,0,0,0,.54-.12,1.35,1.35,0,0,0,.69-1.78l-2.4-5.46,2.69-1.18a1.08,1.08,0,0,0,.29-1.8l-7.09-6.36-.63-.56A1.09,1.09,0,0,0,231.05,236.57Z" transform="translate(-123.53 -131.73)"/></svg>