<svg id="Capa_1" data-name="Capa 1" xmlns="http://www.w3.org/2000/svg" viewBox="0 0 146.61 146.61"><defs><style>.cls-1{fill:#f4f4f4;}.cls-2{fill:#466d4e;}</style></defs><title>photo-camera</title><circle class="cls-1" cx="73.3" cy="73.3" r="73.3"/><path class="cls-2" d="M67.91-11.2H52.35L45-29.45H-1.24L-8.54-11.2H-11v-9.13h-11v9.13H-24.1a8.77,8.77,0,0,0-8.76,8.76V51.18A8.83,8.83,0,0,0-24,60H67.85a8.83,8.83,0,0,0,8.82-8.82V-2.44A8.77,8.77,0,0,0,67.91-11.2Zm-86.17-5.48h3.65v5.48h-3.65ZM73,51.18a5.18,5.18,0,0,1-5.17,5.17H-24a5.18,5.18,0,0,1-5.17-5.17V-2.44A5.12,5.12,0,0,1-24.1-7.55h18L1.24-25.8H42.58l7.3,18.26h18A5.12,5.12,0,0,1,73-2.44Z" transform="translate(51.67 54.69)"/><path class="cls-2" d="M21.91-13A32.86,32.86,0,1,0,54.77,19.84,32.9,32.9,0,0,0,21.91-13Zm0,62.07A29.21,29.21,0,1,1,51.12,19.84,29.24,29.24,0,0,1,21.91,49Z" transform="translate(51.67 54.69)"/><path class="cls-2" d="M21.91-2.07A21.91,21.91,0,1,0,43.81,19.84,21.93,21.93,0,0,0,21.91-2.07Zm0,40.16A18.26,18.26,0,1,1,40.16,19.84,18.28,18.28,0,0,1,21.91,38.09Z" transform="translate(51.67 54.69)"/><path class="cls-2" d="M62.07-3.89a7.3,7.3,0,1,0,7.3,7.3A7.31,7.31,0,0,0,62.07-3.89Zm0,11a3.65,3.65,0,1,1,3.65-3.65A3.65,3.65,0,0,1,62.07,7.06Z" transform="translate(51.67 54.69)"/></svg>