<svg id="Capa_1" data-name="Capa 1" xmlns="http://www.w3.org/2000/svg" viewBox="0 0 438.51 438.53"><defs><style>.cls-1{fill:#466d4e;}</style></defs><title>pinterest</title><path class="cls-1" d="M409.14,109.2a218.35,218.35,0,0,0-79.8-79.8Q279,0,219.28,0T109.22,29.41a218.26,218.26,0,0,0-79.8,79.8Q0,159.6,0,219.27,0,285.79,36.27,340t95.07,80.23q-1.14-30.55,3.71-50.53l28.27-119.35q-7.14-14-7.14-34.83,0-24.26,12.27-40.54t30-16.27q14.27,0,22,9.42t7.71,23.7q0,8.84-3.29,21.55t-8.56,29.41q-5.28,16.7-7.57,26.69-4,17.41,6.57,29.84t28,12.42q30.55,0,50.11-34t19.55-82.51q0-37.41-24.13-60.81t-67.24-23.42q-48.24,0-78.08,31t-29.84,74.09q0,25.7,14.56,43.11,4.85,5.71,3.14,12.28-.57,1.71-2.28,8.56c-1.14,4.57-1.9,7.52-2.28,8.85q-2.28,9.14-10.85,5.71-22-9.13-33.4-31.69T71.09,210.71a124.55,124.55,0,0,1,6.14-38.26,130.49,130.49,0,0,1,19.13-37,150.23,150.23,0,0,1,31.12-31.55q18.12-13.7,44.11-22a183.3,183.3,0,0,1,56-8.28q40.55,0,72.8,18t49.25,46.54a117.49,117.49,0,0,1,17,61.1q0,42.82-14.84,77.09t-42,53.81q-27.12,19.56-61.68,19.56a67.73,67.73,0,0,1-32.55-8.14q-15.13-8.14-20.84-19.27-12.85,50.53-15.42,60.24Q173.86,402.84,157,429.4a216.09,216.09,0,0,0,62.24,9.13q59.67,0,110.06-29.41a218.22,218.22,0,0,0,79.79-79.79q29.41-50.4,29.41-110.07T409.14,109.2Z" transform="translate(-0.01 0)"/></svg>