<svg id="Layer_1" data-name="Layer 1" xmlns="http://www.w3.org/2000/svg" viewBox="0 0 515.68 234.5"><defs><style>.cls-1,.cls-4{fill:#b1afad;}.cls-2{fill:none;stroke:#476e4f;stroke-miterlimit:10;stroke-width:7px;}.cls-3{fill:#fff;}.cls-4{font-size:28.31px;font-family:DINCondensed-Bold, DIN Condensed;font-weight:700;}</style></defs><title>pr1</title><path id="_Zusammengesetzter_Pfad_" data-name="&lt;Zusammengesetzter Pfad&gt;" class="cls-1" d="M434.51,156.95V130.28a41.58,41.58,0,0,0,4.41.21c10,0,18.06-2.94,23.35-8.52,4.33-4.6,6.72-11.46,6.72-19.31,0-7.62-2.85-14.51-7.82-18.9s-12.06-6.49-21.94-6.49a118.39,118.39,0,0,0-21.49,1.64,1.06,1.06,0,0,0-.81,1.07v77a1,1,0,0,0,1,1.09h15.64A1,1,0,0,0,434.51,156.95Zm0-42.45V93.23a27,27,0,0,1,5.55-.48c7.21,0,11.35,3.78,11.35,10.37,0,7.29-4.71,11.64-12.59,11.64A25.3,25.3,0,0,1,434.51,114.5Zm-353.37,43V130.86a41.58,41.58,0,0,0,4.41.21c10,0,18.06-2.94,23.35-8.52,4.33-4.6,6.72-11.46,6.72-19.31,0-7.62-2.85-14.51-7.82-18.9s-12.06-6.49-21.94-6.49a118.39,118.39,0,0,0-21.49,1.64,1.06,1.06,0,0,0-.81,1.07v77a1,1,0,0,0,1,1.09H80.17A1,1,0,0,0,81.14,157.53ZM137.71,111l-.36-6.53a1,1,0,0,0-1-1H121.95a1,1,0,0,0-1,1.08c.23,4.86.44,9.86.44,17.62v36a1,1,0,0,0,1,1h16.68a1,1,0,0,0,1-1V130.95a18.76,18.76,0,0,1,.31-3.52c1-4.78,4.91-7.63,10.41-7.63a22.89,22.89,0,0,1,4.31.42,1,1,0,0,0,1.21-1V103.51a1,1,0,0,0-.85-1,18.19,18.19,0,0,0-3.7-.24A16.52,16.52,0,0,0,137.71,111ZM81.4,114.83v-20a25.72,25.72,0,0,1,5.26-.45c6.83,0,10.75,3.55,10.75,9.75,0,6.85-4.46,10.95-11.93,10.95A24.15,24.15,0,0,1,81.4,114.83Z" transform="translate(46.69 4.35)"/><circle class="cls-2" cx="162.31" cy="122.01" r="108.99"/><rect class="cls-3" x="35.23" y="47.66" width="53.79" height="162.31"/><rect class="cls-3" x="7.57" y="-58.61" width="53.79" height="162.31" transform="translate(103.7 -7.57) rotate(90)"/><text class="cls-4" transform="translate(138.02 67.81)">60%</text></svg>