<svg id="Layer_1" data-name="Layer 1" xmlns="http://www.w3.org/2000/svg" viewBox="0 0 241.97 221.03"><defs><style>.cls-1{fill:#fff;}.cls-2,.cls-3{fill:#b1afad;}.cls-3{font-size:30px;font-family:DINCondensed-Bold, DIN Condensed;font-weight:700;}</style></defs><title>pr111111</title><rect class="cls-1" x="20.98" width="54.64" height="22.68"/><rect class="cls-1" y="198.35" width="54.64" height="22.68"/><path id="_Zusammengesetzter_Pfad_" data-name="&lt;Zusammengesetzter Pfad&gt;" class="cls-2" d="M91.26,161.23V134.59a43.05,43.05,0,0,0,4.49.21c10.15,0,18.37-2.94,23.75-8.51,4.41-4.6,6.84-11.45,6.84-19.29,0-7.61-2.9-14.5-8-18.89s-12.27-6.48-22.31-6.48A122.56,122.56,0,0,0,74.2,83.27a1.06,1.06,0,0,0-.82,1.07v76.89a1,1,0,0,0,1,1.09h15.9A1,1,0,0,0,91.26,161.23Zm58.42-42.85-.34-6a1,1,0,0,0-1-.9H135.1a1,1,0,0,0-1,1c.21,4.49.4,9.11.4,16.28V162a1,1,0,0,0,1,1h15.41a1,1,0,0,0,1-1V136.84a17.33,17.33,0,0,1,.28-3.25c.94-4.42,4.53-7.05,9.61-7.05a21.15,21.15,0,0,1,4,.39,1,1,0,0,0,1.12-.94v-14.5a1,1,0,0,0-.78-.94,16.8,16.8,0,0,0-3.41-.22A15.26,15.26,0,0,0,149.67,118.39ZM92.28,119.5V97.83a26.67,26.67,0,0,1,5.57-.48c7.24,0,11.4,3.85,11.4,10.57,0,7.43-4.73,11.87-12.64,11.87A25,25,0,0,1,92.28,119.5Z" transform="translate(-41.83 -1.56)"/><text class="cls-3" transform="translate(60.97 60.54)">60%</text></svg>