<svg id="Layer_1" data-name="Layer 1" xmlns="http://www.w3.org/2000/svg" viewBox="0 0 241.97 221.03"><defs><style>.cls-1{fill:#fff;}.cls-2,.cls-3{fill:#b1afad;}.cls-3{font-size:30px;font-family:DINCondensed-Bold, DIN Condensed;font-weight:700;}</style></defs><title>pr11111</title><rect class="cls-1" x="20.98" width="54.64" height="22.68"/><rect class="cls-1" y="198.35" width="54.64" height="22.68"/><path id="_Zusammengesetzter_Pfad_" data-name="&lt;Zusammengesetzter Pfad&gt;" class="cls-2" d="M92,161.17V132.91a44.06,44.06,0,0,0,4.68.22c10.58,0,19.13-3.12,24.74-9,4.59-4.88,7.12-12.14,7.12-20.46,0-8.08-3-15.38-8.29-20S107.48,76.74,97,76.74a125.46,125.46,0,0,0-22.78,1.73,1.12,1.12,0,0,0-.86,1.13v81.56a1.1,1.1,0,0,0,1,1.15H91A1.1,1.1,0,0,0,92,161.17Zm57.67-42.78-.34-6a1,1,0,0,0-1-.9H135.1a1,1,0,0,0-1,1c.21,4.49.4,9.11.4,16.28V162a1,1,0,0,0,1,1h15.41a1,1,0,0,0,1-1V136.84a17.33,17.33,0,0,1,.28-3.25c.94-4.42,4.53-7.05,9.61-7.05a21.15,21.15,0,0,1,4,.39,1,1,0,0,0,1.12-.94v-14.5a1,1,0,0,0-.78-.94,16.8,16.8,0,0,0-3.41-.22A15.26,15.26,0,0,0,149.67,118.39Zm-57.39-2.46V94.74a27.26,27.26,0,0,1,5.57-.47c7.24,0,11.4,3.77,11.4,10.33,0,7.26-4.73,11.6-12.64,11.6A25.59,25.59,0,0,1,92.28,115.93Z" transform="translate(-41.83 -1.56)"/><text class="cls-3" transform="translate(60.97 60.54)">60%</text></svg>