<svg id="Ebene_1" data-name="Ebene 1" xmlns="http://www.w3.org/2000/svg" viewBox="0 0 146.61 146.61"><defs><style>.cls-1{fill:#f5f4f5;}.cls-2{fill:#486e4f;}</style></defs><title>projekte</title><circle class="cls-1" cx="73.3" cy="73.3" r="73.3"/><g id="Layer_1" data-name="Layer 1"><path class="cls-2" d="M254.46,369.67V297h58.67v61l11.18-9.23V291.44a5.59,5.59,0,0,0-5.59-5.59H248.88a5.59,5.59,0,0,0-5.59,5.59v83.82a5.59,5.59,0,0,0,5.59,5.59h48.76l-7.9-11.17Z" transform="translate(-210.33 -255.31)"/><path class="cls-2" d="M340.4,345.93a2.79,2.79,0,0,0-3.69-.12L311.08,367,294,356.74a2.79,2.79,0,0,0-3.72,4l18.51,26.19a2.8,2.8,0,0,0,2.26,1.18h0a2.78,2.78,0,0,0,2.25-1.14l27.42-37.37A2.8,2.8,0,0,0,340.4,345.93Z" transform="translate(-210.33 -255.31)"/><path class="cls-2" d="M300.56,305.41H267a5.59,5.59,0,0,0,0,11.18h33.53a5.59,5.59,0,0,0,0-11.18Z" transform="translate(-210.33 -255.31)"/><path class="cls-2" d="M300.56,322.18H267a5.59,5.59,0,0,0,0,11.18h33.53a5.59,5.59,0,0,0,0-11.18Z" transform="translate(-210.33 -255.31)"/><path class="cls-2" d="M300.56,338.94H267a5.59,5.59,0,0,0,0,11.18h33.53a5.59,5.59,0,0,0,0-11.18Z" transform="translate(-210.33 -255.31)"/></g></svg>