<svg id="Ebene_1" data-name="Ebene 1" xmlns="http://www.w3.org/2000/svg" viewBox="0 0 392.42 325.83"><defs><style>.cls-1{fill:none;stroke:#476d4e;stroke-miterlimit:10;stroke-width:7px;}.cls-2,.cls-4{fill:#b2b1ae;}.cls-3{fill:#fff;}.cls-4{font-size:30px;font-family:DINCondensed-Bold, DIN Condensed;font-weight:700;}</style></defs><title>ps1</title><circle class="cls-1" cx="151.49" cy="158.09" r="115.5"/><path id="_Zusammengesetzter_Pfad_" data-name="&lt;Zusammengesetzter Pfad&gt;" class="cls-2" d="M395.57,443.35V417.3c1.39.14,3,.21,4.82.21,10.9,0,19.72-2.88,25.49-8.32,4.73-4.5,7.34-11.19,7.34-18.86a23.24,23.24,0,0,0-8.54-18.47c-5.33-4.26-13.17-6.34-24-6.34a144.17,144.17,0,0,0-23.47,1.6,1.06,1.06,0,0,0-.88,1v75.19a1.06,1.06,0,0,0,1.06,1.06h17.07A1.06,1.06,0,0,0,395.57,443.35Zm0-41.47V381.11a32.79,32.79,0,0,1,6.06-.46c7.88,0,12.39,3.69,12.39,10.13,0,7.12-5.14,11.38-13.75,11.38A30.83,30.83,0,0,1,395.57,401.88Z" transform="translate(-277.58 -248)"/><path id="_Pfad_" data-name="&lt;Pfad&gt;" class="cls-2" d="M464.16,408.54c-7-2.46-8.22-3.63-8.22-5.33,0-3,3.44-3.46,5.5-3.46a26.08,26.08,0,0,1,11.48,3,1.06,1.06,0,0,0,1.54-.67l3.05-11.87a1.06,1.06,0,0,0-.55-1.21,38.14,38.14,0,0,0-16.08-3.28c-13.87,0-23.56,7.88-23.56,19.13-.09,5.49,2.68,13,16.44,17.64,6.68,2.23,7.42,3.39,7.42,5.33,0,.88,0,3.57-6.29,3.57a32.49,32.49,0,0,1-14.26-4,1.06,1.06,0,0,0-1.58.65L436,440.38a1.06,1.06,0,0,0,.53,1.19c4.67,2.52,11.37,4,18.37,4,15.44,0,25-7.25,25-18.94C479.78,417.82,474.93,412.25,464.16,408.54Z" transform="translate(-277.58 -248)"/><rect class="cls-3" width="151.49" height="100.34"/><rect class="cls-3" x="26.42" y="88" width="57" height="172"/><rect class="cls-3" x="335.42" y="100.34" width="57" height="172"/><rect class="cls-3" x="31.94" y="218.84" width="222.85" height="106.99"/><text class="cls-4" transform="translate(130.4 97.36)">41%</text></svg>