<svg id="Layer_1" data-name="Layer 1" xmlns="http://www.w3.org/2000/svg" viewBox="0 0 259.63 230.04"><defs><style>.cls-1{fill:#fff;}.cls-2{fill:none;stroke:#476e4f;stroke-miterlimit:10;stroke-width:7px;}.cls-3,.cls-4{fill:#b1afad;}.cls-4{font-size:26.59px;font-family:DINCondensed-Bold, DIN Condensed;font-weight:700;}</style></defs><title>ps11</title><rect class="cls-1" x="11.23" y="44.23" width="47.98" height="154.12"/><rect class="cls-1" x="11.23" y="6.84" width="61.19" height="205.94"/><rect class="cls-1" x="62.8" width="54.64" height="22.68"/><rect class="cls-1" x="41.83" y="198.35" width="54.64" height="22.68"/><ellipse class="cls-2" cx="116.92" cy="114.35" rx="100.26" ry="102.36"/><path id="_Pfad_" data-name="&lt;Pfad&gt;" class="cls-3" d="M147.27,118.81c-5.93-2.37-6.93-3.49-6.93-5.12,0-2.9,2.9-3.33,4.63-3.33a19.92,19.92,0,0,1,9.67,2.92.8.8,0,0,0,.78,0,1,1,0,0,0,.51-.68l2.57-11.41a1.07,1.07,0,0,0-.47-1.17,28.82,28.82,0,0,0-13.54-3.15c-11.69,0-19.85,7.57-19.85,18.4-.08,5.28,2.26,12.51,13.85,17,5.63,2.14,6.25,3.26,6.25,5.12,0,.85,0,3.44-5.3,3.44a24.89,24.89,0,0,1-12-3.87.8.8,0,0,0-.81-.07,1,1,0,0,0-.53.7l-2.57,11.85a1.08,1.08,0,0,0,.44,1.14c3.93,2.43,9.57,3.82,15.47,3.82,13,0,21.09-7,21.09-18.21C160.43,127.72,156.34,122.37,147.27,118.81Z" transform="translate(0 -1.56)"/><text class="cls-4" transform="translate(102.51 55.91) scale(0.98 1)">41%</text><path id="_Zusammengesetzter_Pfad_" data-name="&lt;Zusammengesetzter Pfad&gt;" class="cls-3" d="M89.49,152.27v-25a37.46,37.46,0,0,0,4.06.2c9.18,0,16.61-2.76,21.48-8,4-4.32,6.18-10.76,6.18-18.13,0-7.16-2.62-13.63-7.19-17.75s-11.09-6.09-20.18-6.09A106.72,106.72,0,0,0,74.06,79a1,1,0,0,0-.74,1v72.29a1,1,0,0,0,.89,1H88.59A1,1,0,0,0,89.49,152.27Zm0-39.87v-20A24.3,24.3,0,0,1,94.59,92c6.64,0,10.44,3.55,10.44,9.74,0,6.85-4.33,10.94-11.58,10.94A22.8,22.8,0,0,1,89.49,112.4Z" transform="translate(0 -1.56)"/><rect class="cls-1" x="22.3" width="94.63" height="29.72"/><rect class="cls-1" x="-58.93" y="83.17" width="187" height="69.15" transform="translate(152.32 81.61) rotate(90)"/><rect class="cls-1" x="103.15" y="129.48" width="42.34" height="161.9" transform="translate(334.74 84.56) rotate(90)"/></svg>