<svg id="Layer_1" data-name="Layer 1" xmlns="http://www.w3.org/2000/svg" viewBox="0 0 248.4 221.34"><defs><style>.cls-1{fill:#fff;}.cls-2,.cls-3{fill:#b1afad;}.cls-3{font-size:26.59px;font-family:DINCondensed-Bold, DIN Condensed;font-weight:700;}</style></defs><title>ps11111</title><rect class="cls-1" x="50.62" width="54.64" height="22.68"/><rect class="cls-1" x="29.65" y="198.35" width="54.64" height="22.68"/><rect class="cls-1" y="52.78" width="47.98" height="154.12"/><rect class="cls-1" y="15.39" width="61.19" height="205.94"/><path id="_Pfad_" data-name="&lt;Pfad&gt;" class="cls-2" d="M148.22,127.36c-5.93-2.37-6.93-3.49-6.93-5.12,0-2.9,2.9-3.33,4.63-3.33a19.92,19.92,0,0,1,9.67,2.92.8.8,0,0,0,.78,0,1,1,0,0,0,.51-.68l2.57-11.41a1.07,1.07,0,0,0-.47-1.17,28.82,28.82,0,0,0-13.54-3.15c-11.69,0-19.85,7.57-19.85,18.4-.08,5.28,2.26,12.51,13.85,17,5.63,2.14,6.25,3.26,6.25,5.12,0,.85,0,3.44-5.3,3.44a24.89,24.89,0,0,1-12-3.87.8.8,0,0,0-.81-.07,1,1,0,0,0-.53.7L124.48,158a1.08,1.08,0,0,0,.44,1.14c3.93,2.43,9.57,3.82,15.47,3.82,13,0,21.09-7,21.09-18.21C161.38,136.28,157.29,130.92,148.22,127.36Z" transform="translate(-12.18 -1.56)"/><text class="cls-3" transform="translate(91.28 64.47) scale(0.98 1)">41%</text><path id="_Zusammengesetzter_Pfad_" data-name="&lt;Zusammengesetzter Pfad&gt;" class="cls-2" d="M90.44,160.83v-25a37.46,37.46,0,0,0,4.06.2c9.18,0,16.61-2.76,21.48-8,4-4.32,6.18-10.76,6.18-18.13,0-7.16-2.62-13.63-7.19-17.75S103.87,86,94.78,86A106.72,106.72,0,0,0,75,87.53a1,1,0,0,0-.74,1v72.29a1,1,0,0,0,.89,1H89.54A1,1,0,0,0,90.44,160.83Zm0-39.87V101a24.3,24.3,0,0,1,5.11-.45c6.64,0,10.44,3.55,10.44,9.74,0,6.85-4.33,10.94-11.58,10.94A22.8,22.8,0,0,1,90.44,121Z" transform="translate(-12.18 -1.56)"/></svg>