<svg id="Ebene_1" data-name="Ebene 1" xmlns="http://www.w3.org/2000/svg" viewBox="0 0 146.61 146.61"><defs><style>.cls-1{fill:#f5f4f5;}.cls-2{fill:none;stroke:#486e4f;stroke-miterlimit:10;}</style></defs><title>riding</title><circle class="cls-1" cx="73.3" cy="73.3" r="73.3"/><path class="cls-2" d="M336.09,302.69s.18-9.71-2.08-12.15l1.56-7.3-4.16,4.35.52-5.21-3.82,5S317.5,279.61,306.56,298a40.26,40.26,0,0,1-2.88,4.52,4.06,4.06,0,0,1-1-1,7,7,0,0,1,.16-4.95c1-1.73,1.65-9.58,1.65-9.58,4.45.67,7.09-4,7.09-4l2.31,1.65c1.48-1.65,1.24-6.32.82-7.92-2.33-9.11-11.88-5.61-11.88-5.61-6.27,3-2.31,6.6-2.31,6.6-2.47-.5-10.16-.28-13.52.33-6.43,1.15-19.15,10.4-19.15,10.4-6.44,4.45-4.29,9.9-4.29,9.9,1,4,14.19,14.36,14.19,14.36s.05.11.09.16a25.37,25.37,0,0,1-6.52-1.48s-15.1-2.44-20.31,5.21c0,0-16.15-4.51-16.67,16.49,0,0,2.6,12.33-3.82,14.76,0,0,9,3.47,12.32-17.89,0,0-.35-8.68,5.9-9.9,0,0-3.47,6.78,0,17.36a10,10,0,0,1-2.95,9.89s-3.47-.35-4.17,9.9c0,0-5.38,9.37-3.3,13.53,0,0,1.39,2.26.7,3.3,0,0-3.3,1.56.87,4.51,0,0,4.86,2.08,3.82-1.91,0,0-3.13-9.2,1-17.36,0,0,12.5-13.36,13.72-16.49,0,0,4.86.35,5.73,6.77,0,0-2.09,9.21,2.26,13.2,0,0,3,12.49,6.43,12.49,0,0-.17,4,4.86,4,0,0,5-.18,2.26-3.13,0,0-10.42-1.55-9.72-20.83,0,0,2.95-10.59,2.95-15.45,0,0,20.14,6.94,27.6,2.44,0,0,.52,15.79-2.26,25,0,0-2.61,5.21,1.21,6.42,0,0-2.77,6.08,1.22,6.08,0,0,5.21,1.22,4.86-1.91,0,0-1.39-3.47-3-4.51a14.89,14.89,0,0,1,1-11.81s5-13.37,4.86-17.71c0,0,7.64,3.64,11.8,8A12.22,12.22,0,0,1,318.91,363s-2.44,2.09-2.26,3.64c0,0-4.34-1.91-4.51,4.16,0,0,.52,6.09,4,0,0,0,8-5.55,9.72-14.58,0,0,1.73-5.9-3.13-9.37,0,0-4-6.25-6.08-7.46,0,0,6.41-8.16,2.95-15.62,0,0-2.95-2.26-.87-6.77a43.53,43.53,0,0,0,3.41-8.45c1.4-.11,2.87-.27,4.37-.45a8.55,8.55,0,0,0,1.95,1.25s0,5.9,4.86,5.73C333.31,315,338.52,314.84,336.09,302.69Zm-42.24-7.89,2.56-.33s-.16,5.61.82,6.6c0,0-3.18-.75-3.55-1.82C293.39,298.42,293.85,294.8,293.85,294.8Zm-1.55,17.79c-2-4.5-7.77-10.77-7.77-10.77-3.47-4.62,3.14-4.95,3.14-4.95l.5,6.27c1.26,3.57,7.36,4.49,10.92,4.71A24.31,24.31,0,0,1,292.29,312.59Zm30.78-9.71a11.4,11.4,0,0,0,1.86,3.56l-2.36.22A20.79,20.79,0,0,0,323.07,302.88Z" transform="translate(-210.33 -255.31)"/></svg>