<svg id="Ebene_1" data-name="Ebene 1" xmlns="http://www.w3.org/2000/svg" viewBox="0 0 146.61 146.61"><defs><style>.cls-1{fill:#f5f4f5;}.cls-2{fill:#486e4f;}</style></defs><title>schule</title><circle class="cls-1" cx="73.3" cy="73.3" r="73.3"/><path class="cls-2" d="M320.71,340.89c-.87-2.07-3-3.4-4.94-4.21l-6.63-3.05c0-4.87-.05-29.1,0-31.64a31.9,31.9,0,0,0-1.48-10.57l8.25-3,0,7.62h-.56a.72.72,0,0,0-.78.64l-.73,6.3a.72.72,0,0,0,.65.8h5.76a.72.72,0,0,0,.65-.8l-.43-3.71-.3-2.59a.72.72,0,0,0-.78-.63h-.56v-8.69l.29-.11,1-.35a2.09,2.09,0,0,0,0-3.92l-34.51-12.47a2.07,2.07,0,0,0-1.42,0L249.66,283a2.09,2.09,0,0,0,0,3.92l12.52,4.52a32,32,0,0,0-1.55,10.83v31.36L254,336.68a8.74,8.74,0,0,0-4.94,4.21s-14.61,37.33-6.69,37.33h85C335.32,378.21,320.71,340.89,320.71,340.89Zm-22.54-3.21a21.37,21.37,0,0,0-13.27,16.63s0,0,0,0a21.37,21.37,0,0,0-13.27-16.63l7.29-7.24c-10.28-4.61-13-20.29-13-20.29a20.8,20.8,0,0,1-.65-3.82c5.15-.35,23.11-1.9,24.33-7.72,1.69,3.13,10.65,11,14.28,11.58,0,0-3.52,15.5-13.13,20.23Z" transform="translate(-210.33 -255.31)"/></svg>