<svg id="Ebene_1" data-name="Ebene 1" xmlns="http://www.w3.org/2000/svg" viewBox="0 0 146.61 146.61"><defs><style>.cls-1{fill:#f5f4f5;}.cls-2{fill:#486e4f;}</style></defs><title>swisscomwebseite</title><circle class="cls-1" cx="73.3" cy="73.3" r="73.3"/><path class="cls-2" d="M250.22,363.48a11.47,11.47,0,0,0-11.45,11.45,1.63,1.63,0,0,0,1.64,1.64H260a1.63,1.63,0,0,0,1.64-1.64A11.47,11.47,0,0,0,250.22,363.48Zm-8,9.82a8.19,8.19,0,0,1,6.38-6.36V370h3.27v-3.09a8.19,8.19,0,0,1,6.38,6.36Z" transform="translate(-210.33 -255.31)"/><path class="cls-2" d="M335.29,348.76h-2.87c-.09-.23-.18-.45-.28-.68l2-2a1.63,1.63,0,0,0,0-2.31l-6.94-6.94a1.61,1.61,0,0,0-1.23-.46,8.16,8.16,0,0,0,4.38-7.2V286.59a8.19,8.19,0,0,0-8.18-8.18H246.95a8.19,8.19,0,0,0-8.18,8.18v42.53a8.19,8.19,0,0,0,8.18,8.18H268.3l-6.18,11.45h-2.9a5.73,5.73,0,0,0,0,11.45h35.17a1.63,1.63,0,0,0,1.64,1.64h2.87c.09.23.18.45.28.68l-2,2a1.63,1.63,0,0,0,0,2.31l6.94,6.94a1.63,1.63,0,0,0,2.31,0l2-2,.68.28v2.87a1.63,1.63,0,0,0,1.64,1.64h9.82a1.63,1.63,0,0,0,1.64-1.64v-2.87l.68-.28,2,2a1.63,1.63,0,0,0,2.31,0l6.94-6.94a1.63,1.63,0,0,0,0-2.31l-2-2c.1-.23.19-.45.28-.68h2.87a1.63,1.63,0,0,0,1.64-1.64v-9.82A1.63,1.63,0,0,0,335.29,348.76ZM242,286.59a4.91,4.91,0,0,1,4.91-4.91H322.2a4.91,4.91,0,0,1,4.91,4.91v34.36H242ZM246.95,334a4.91,4.91,0,0,1-4.91-4.91v-4.91h85.07v4.91A4.91,4.91,0,0,1,322.2,334H246.95Zm77.94,2.78-2,2-.68-.28v-1.23A8.07,8.07,0,0,0,324.89,336.82Zm-15.78.49v1.23l-.68.28-1.52-1.52Zm-5.54,0-1.41,1.41-1-1.41Zm-9.19,19.63H259.22a2.45,2.45,0,1,1,0-4.91h35.17Zm-28.56-8.18L272,337.31h25.23l2.57,3.76-2.66,2.66a1.63,1.63,0,0,0,0,2.31l2,2c-.1.23-.19.45-.28.68H265.83Zm67.82,9.82h-2.39a1.64,1.64,0,0,0-1.56,1.14,14.72,14.72,0,0,1-1,2.39A1.64,1.64,0,0,0,329,364l1.69,1.69-4.63,4.63-1.69-1.69a1.64,1.64,0,0,0-1.91-.29,14.72,14.72,0,0,1-2.39,1,1.64,1.64,0,0,0-1.15,1.56v2.39h-6.54v-2.39a1.64,1.64,0,0,0-1.14-1.56,14.72,14.72,0,0,1-2.39-1,1.64,1.64,0,0,0-1.91.29l-1.69,1.69-4.63-4.63,1.69-1.69a1.64,1.64,0,0,0,.29-1.91,14.72,14.72,0,0,1-1-2.39,1.64,1.64,0,0,0-1.56-1.15h-2.39V352H300a1.64,1.64,0,0,0,1.56-1.14,14.72,14.72,0,0,1,1-2.39,1.64,1.64,0,0,0-.29-1.91l-1.69-1.69,4.63-4.63,1.69,1.69a1.63,1.63,0,0,0,1.91.29,14.72,14.72,0,0,1,2.39-1,1.64,1.64,0,0,0,1.15-1.56v-2.39h6.54v2.39a1.64,1.64,0,0,0,1.14,1.56,14.72,14.72,0,0,1,2.39,1,1.63,1.63,0,0,0,1.91-.29l1.69-1.69,4.63,4.63L329,346.58a1.64,1.64,0,0,0-.29,1.91,14.72,14.72,0,0,1,1,2.39,1.64,1.64,0,0,0,1.56,1.15h2.39Z" transform="translate(-210.33 -255.31)"/><path class="cls-2" d="M315.66,345.49a9.82,9.82,0,1,0,9.82,9.82A9.83,9.83,0,0,0,315.66,345.49Zm0,16.36a6.54,6.54,0,1,1,6.54-6.54A6.55,6.55,0,0,1,315.66,361.85Z" transform="translate(-210.33 -255.31)"/><path class="cls-2" d="M271,291l-2.31-2.31-11.45,11.45a1.63,1.63,0,0,0,0,2.31l11.45,11.45,2.31-2.31-10.3-10.3Z" transform="translate(-210.33 -255.31)"/><path class="cls-2" d="M307,300.16l-11.45-11.45L293.23,291l10.3,10.3-10.3,10.3,2.31,2.31L307,302.47A1.63,1.63,0,0,0,307,300.16Z" transform="translate(-210.33 -255.31)"/><rect class="cls-2" x="265.66" y="298.05" width="32.91" height="3.27" transform="translate(-322.43 162.68) rotate(-63.43)"/><rect class="cls-2" x="92.24" y="55.82" width="3.27" height="3.27"/><rect class="cls-2" x="98.78" y="55.82" width="3.27" height="3.27"/><rect class="cls-2" x="105.33" y="55.82" width="3.27" height="3.27"/></svg>