<svg id="Ebene_1" data-name="Ebene 1" xmlns="http://www.w3.org/2000/svg" viewBox="0 0 146.61 146.61"><defs><style>.cls-1{fill:#f5f4f5;}.cls-2{fill:#486e4f;}</style></defs><title>ük</title><circle class="cls-1" cx="73.3" cy="73.3" r="73.3"/><path class="cls-2" d="M307.57,349.69a22.39,22.39,0,0,0-44.77.39c0,2.34-2.37,9-3.56,11.49a2.32,2.32,0,0,0,2.09,3.33H265v1.63a10.81,10.81,0,0,0,10.81,10.89h.06a3.68,3.68,0,0,1,3.68,3.68v4.62a2.32,2.32,0,0,0,2.32,2.32h18.42a2.32,2.32,0,0,0,2.31-2.56L301.38,374a15.51,15.51,0,0,1,2.17-9.63A28.51,28.51,0,0,0,307.57,349.69Zm-8,12.28a20.18,20.18,0,0,0-2.83,12.53l.93,8.88H284.18v-2.3a8.32,8.32,0,0,0-8.32-8.32h-.06a6.17,6.17,0,0,1-6.17-6.21l0-4a2.32,2.32,0,0,0-2.32-2.34H264.8c1.23-3.25,2.63-7.69,2.63-10.18a17.75,17.75,0,0,1,35.49-.31A24,24,0,0,1,299.59,362Z" transform="translate(-210.33 -255.31)"/><path class="cls-2" d="M296.34,340.39a14.51,14.51,0,0,0-4.45-3.41,2.32,2.32,0,0,0-2.06,4.16,9.92,9.92,0,0,1,5.51,8.74,2.32,2.32,0,0,0,2.32,2.28h0A2.32,2.32,0,0,0,300,349.8,14.6,14.6,0,0,0,296.34,340.39Z" transform="translate(-210.33 -255.31)"/><path class="cls-2" d="M302.44,275.19a32.54,32.54,0,0,0-37.61,0c-5.23,4-8.12,9.38-8.12,15.14,0,5.26,2.47,10.3,6.94,14.18a29.51,29.51,0,0,0,15.11,6.6l2.76,6a2.32,2.32,0,0,0,4.22,0l2.76-6a29.51,29.51,0,0,0,15.11-6.6c4.48-3.88,6.94-8.92,6.94-14.18C310.56,284.56,307.68,279.19,302.44,275.19ZM286,306.82a2.32,2.32,0,0,0-1.2,1.16l-1.19,2.59L282.45,308a2.32,2.32,0,0,0-1.2-1.16v-3a13.23,13.23,0,0,0,4.78,0v3Zm-.07-7.76v-4.85l1.29-1.29a2.32,2.32,0,1,0-3.28-3.28l-.37.37-.33-.33a2.32,2.32,0,0,0-3.28,3.28l1.33,1.33v4.79a8.76,8.76,0,1,1,4.64,0Zm4.71,6.89V302a13.41,13.41,0,1,0-14.06,0V306c-8.92-2.21-15.25-8.47-15.25-15.63,0-9.09,10-16.48,22.28-16.48s22.28,7.39,22.28,16.48C305.92,297.48,299.59,303.75,290.67,306Z" transform="translate(-210.33 -255.31)"/><path class="cls-2" d="M259.61,333.88a16.7,16.7,0,0,0,4.52-11.33c0-9.85-9-17.87-20-17.87s-20,8-20,17.87,9,17.87,20,17.87a21.88,21.88,0,0,0,7.38-1.26l5.8,1a2.32,2.32,0,0,0,2.71-2.56Zm-4-2.5a2.32,2.32,0,0,0-.7,2l.21,1.73-3.34-.59a2.32,2.32,0,0,0-1.25.12,17.21,17.21,0,0,1-6.31,1.18c-8.45,0-15.32-5.93-15.32-13.23s6.87-13.23,15.32-13.23,15.32,5.93,15.32,13.23A12.24,12.24,0,0,1,255.57,331.38Z" transform="translate(-210.33 -255.31)"/><path class="cls-2" d="M253.4,326.81l-7-13a2.32,2.32,0,0,0-4.09,0l-4.84,9v0l-2.12,4a2.32,2.32,0,1,0,4.09,2.19l1.46-2.73h6.91l1.46,2.73a2.32,2.32,0,0,0,4.09-2.19Zm-10-5.18,1-1.81,1,1.81Z" transform="translate(-210.33 -255.31)"/><path class="cls-2" d="M323.09,300.54c-11,0-20,8-20,17.87a16.7,16.7,0,0,0,4.49,11.3l-.58,3.85a2.32,2.32,0,0,0,2.74,2.62l5.95-1.16a21.88,21.88,0,0,0,7.36,1.26c11,0,20-8,20-17.87S334.1,300.54,323.09,300.54Zm0,31.1a17.21,17.21,0,0,1-6.31-1.18,2.32,2.32,0,0,0-1.29-.12l-3.36.65.26-1.74a2.32,2.32,0,0,0-.69-2,12.24,12.24,0,0,1-3.92-8.83c0-7.29,6.87-13.23,15.32-13.23s15.32,5.93,15.32,13.23S331.54,331.64,323.09,331.64Z" transform="translate(-210.33 -255.31)"/><path class="cls-2" d="M326.81,316.11h-1.39v-1.39a2.32,2.32,0,0,0-4.64,0v1.39h-1.39a2.32,2.32,0,0,0,0,4.64h1.39v1.39a2.32,2.32,0,0,0,4.64,0v-1.39h1.39a2.32,2.32,0,0,0,0-4.64Z" transform="translate(-210.33 -255.31)"/></svg>